<svg xmlns="http://www.w3.org/2000/svg" width="3600" height="3600" viewBox="0 0 3600 3600"><rect width="3600" height="3600" fill="#fdfdfb"/><defs><marker id="a" viewBox="0 0 10 10" refX="9" refY="5" markerWidth="6" markerHeight="6" orient="auto-start-reverse"><path d="M0 1L9 5L0 9z" fill="#16457c"/></marker></defs><path d="M1760.3 733.8Q2007.3 1031.0 2393.7 1038.9" fill="none" stroke="#16457c" stroke-width="8" opacity="0.85" marker-end="url(#a)"/><path d="M1738.6 761.0Q2085.7 1374.4 2606.5 1849.3" fill="none" stroke="#16457c" stroke-width="8" opacity="0.85" marker-end="url(#a)"/><path d="M1672.6 776.0Q1513.9 1649.8 1277.8 2505.9" fill="none" stroke="#16457c" stroke-width="8" opacity="0.85" marker-end="url(#a)"/><path d="M2481.4 1148.8Q2403.1 1527.2 2637.8 1834.3" fill="none" stroke="#16457c" stroke-width="8" opacity="0.85" marker-end="url(#a)"/><path d="M2446.7 1148.8Q2183.5 1802.6 2136.9 2505.9" fill="none" stroke="#16457c" stroke-width="8" opacity="0.85" marker-end="url(#a)"/><path d="M2393.7 1106.6Q1611.6 1527.2 795.1 1876.5" fill="none" stroke="#16457c" stroke-width="8" opacity="0.85" marker-end="url(#a)"/><path d="M2606.5 1971.3Q2261.8 2146.0 2168.2 2521.0" fill="none" stroke="#16457c" stroke-width="8" opacity="0.85" marker-end="url(#a)"/><path d="M2584.9 1944.1Q1909.6 2146.0 1330.7 2548.1" fill="none" stroke="#16457c" stroke-width="8" opacity="0.85" marker-end="url(#a)"/><path d="M2584.9 1876.5Q1768.4 1527.2 986.3 1106.6" fill="none" stroke="#16457c" stroke-width="8" opacity="0.85" marker-end="url(#a)"/><path d="M2041.5 2582.0Q1690.0 2421.4 1338.5 2582.0" fill="none" stroke="#16457c" stroke-width="8" opacity="0.85" marker-end="url(#a)"/><path d="M2049.3 2548.1Q1470.4 2146.0 795.1 1944.1" fill="none" stroke="#16457c" stroke-width="8" opacity="0.85" marker-end="url(#a)"/><path d="M2102.2 2505.9Q1866.1 1649.8 1707.4 776.0" fill="none" stroke="#16457c" stroke-width="8" opacity="0.85" marker-end="url(#a)"/><path d="M1211.8 2521.0Q1118.2 2146.0 773.5 1971.3" fill="none" stroke="#16457c" stroke-width="8" opacity="0.85" marker-end="url(#a)"/><path d="M1243.1 2505.9Q1196.5 1802.6 933.3 1148.8" fill="none" stroke="#16457c" stroke-width="8" opacity="0.85" marker-end="url(#a)"/><path d="M1309.1 2521.0Q1831.2 1802.6 2415.4 1133.7" fill="none" stroke="#16457c" stroke-width="8" opacity="0.85" marker-end="url(#a)"/><path d="M742.2 1834.3Q976.9 1527.2 898.6 1148.8" fill="none" stroke="#16457c" stroke-width="8" opacity="0.85" marker-end="url(#a)"/><path d="M773.5 1849.3Q1294.3 1374.4 1641.4 761.0" fill="none" stroke="#16457c" stroke-width="8" opacity="0.85" marker-end="url(#a)"/><path d="M802.8 1910.3Q1690.0 1870.6 2577.2 1910.3" fill="none" stroke="#16457c" stroke-width="8" opacity="0.85" marker-end="url(#a)"/><path d="M986.3 1038.9Q1372.7 1031.0 1619.7 733.8" fill="none" stroke="#16457c" stroke-width="8" opacity="0.85" marker-end="url(#a)"/><path d="M994.0 1072.7Q1690.0 1183.9 2386.0 1072.7" fill="none" stroke="#16457c" stroke-width="8" opacity="0.85" marker-end="url(#a)"/><path d="M964.6 1133.7Q1548.8 1802.6 2070.9 2521.0" fill="none" stroke="#16457c" stroke-width="8" opacity="0.85" marker-end="url(#a)"/><circle cx="1690.0" cy="700.0" r="46" fill="#fdfdfb" stroke="#1b1e24" stroke-width="8"/><circle cx="2464.0" cy="1072.7" r="46" fill="#fdfdfb" stroke="#1b1e24" stroke-width="8"/><circle cx="2655.2" cy="1910.3" r="46" fill="#fdfdfb" stroke="#1b1e24" stroke-width="8"/><circle cx="2119.5" cy="2582.0" r="46" fill="#fdfdfb" stroke="#1b1e24" stroke-width="8"/><circle cx="1260.5" cy="2582.0" r="46" fill="#fdfdfb" stroke="#1b1e24" stroke-width="8"/><circle cx="724.8" cy="1910.3" r="46" fill="#fdfdfb" stroke="#1b1e24" stroke-width="8"/><circle cx="916.0" cy="1072.7" r="46" fill="#fdfdfb" stroke="#1b1e24" stroke-width="8"/><text x="1800.0" y="3340" font-family="Charter, Georgia, serif" font-size="76" fill="#14161a" text-anchor="middle">QR&#8327; &#8212; the Paley tournament on seven vertices</text><line x1="1008.0000000000001" y1="3380" x2="2592.0" y2="3380" stroke="#c8ccd2" stroke-width="3"/><text x="1800.0" y="3440" font-family="Charter, Georgia, serif" font-size="42" fill="#4a4f57" text-anchor="middle">arrows from the quadratic residues {1, 2, 4} mod 7</text><text x="1800.0" y="3500" font-family="Helvetica Neue, Arial, sans-serif" font-size="30" letter-spacing="2" fill="#8b9098" text-anchor="middle">HALF OUNCE RESEARCH &#183; doi:10.5281/zenodo.21799111</text></svg>