<svg xmlns="http://www.w3.org/2000/svg" width="1500" height="1500" viewBox="0 0 1500 1500"><rect width="1500" height="1500" fill="#0f1115"/><path d="M1269.8 686.8Q1134.4 883.6 1120.9 1122.1" fill="none" stroke="#16457c" stroke-width="1.4" opacity="0.42"/><path d="M150.0 747.1Q718.3 873.7 1269.8 686.8" fill="none" stroke="#3f8f5a" stroke-width="1.4" opacity="0.42"/><path d="M1269.8 686.8Q720.8 649.6 232.4 902.9" fill="none" stroke="#16457c" stroke-width="1.4" opacity="0.42"/><path d="M1269.8 686.8Q1076.0 916.2 1029.6 1212.9" fill="none" stroke="#16457c" stroke-width="1.4" opacity="0.42"/><path d="M1269.8 686.8Q882.8 860.1 642.0 1209.1" fill="none" stroke="#16457c" stroke-width="1.4" opacity="0.42"/><path d="M1269.8 686.8Q1049.0 921.5 982.2 1236.7" fill="none" stroke="#16457c" stroke-width="1.4" opacity="0.42"/><path d="M905.8 194.5Q1018.9 491.6 1269.8 686.8" fill="none" stroke="#3f8f5a" stroke-width="1.4" opacity="0.42"/><path d="M340.6 1114.0Q865.0 1030.5 1269.8 686.8" fill="none" stroke="#16457c" stroke-width="1.4" opacity="0.42"/><path d="M1157.5 458.7Q1181.7 588.4 1269.8 686.8" fill="none" stroke="#16457c" stroke-width="1.4" opacity="0.42"/><path d="M520.2 249.8Q833.8 573.2 1269.8 686.8" fill="none" stroke="#16457c" stroke-width="1.4" opacity="0.42"/><path d="M1269.8 686.8Q839.0 449.5 347.6 470.5" fill="none" stroke="#16457c" stroke-width="1.4" opacity="0.42"/><path d="M908.2 177.1Q1017.6 482.5 1269.8 686.8" fill="none" stroke="#3f8f5a" stroke-width="1.4" opacity="0.42"/><path d="M1120.9 1122.1Q688.0 798.7 150.0 747.1" fill="none" stroke="#3f8f5a" stroke-width="1.4" opacity="0.42"/><path d="M232.4 902.9Q646.0 1136.9 1120.9 1122.1" fill="none" stroke="#16457c" stroke-width="1.4" opacity="0.42"/><path d="M1120.9 1122.1Q1062.5 1154.8 1029.6 1212.9" fill="none" stroke="#3f8f5a" stroke-width="1.4" opacity="0.42"/><path d="M1120.9 1122.1Q805.3 656.4 293.8 422.2" fill="none" stroke="#3f8f5a" stroke-width="1.4" opacity="0.42"/><path d="M1120.9 1122.1Q869.3 1098.6 642.0 1209.1" fill="none" stroke="#3f8f5a" stroke-width="1.4" opacity="0.42"/><path d="M1120.9 1122.1Q852.5 1096.7 610.0 1214.3" fill="none" stroke="#3f8f5a" stroke-width="1.4" opacity="0.42"/><path d="M905.8 194.5Q883.5 688.4 1120.9 1122.1" fill="none" stroke="#3f8f5a" stroke-width="1.4" opacity="0.42"/><path d="M1120.9 1122.1Q731.9 1008.8 340.6 1114.0" fill="none" stroke="#3f8f5a" stroke-width="1.4" opacity="0.42"/><path d="M1157.5 458.7Q1046.3 785.3 1120.9 1122.1" fill="none" stroke="#16457c" stroke-width="1.4" opacity="0.42"/><path d="M1120.9 1122.1Q942.6 601.9 520.2 249.8" fill="none" stroke="#3f8f5a" stroke-width="1.4" opacity="0.42"/><path d="M1239.8 415.4Q1081.4 752.1 1120.9 1122.1" fill="none" stroke="#16457c" stroke-width="1.4" opacity="0.42"/><path d="M347.6 470.5Q643.0 904.6 1120.9 1122.1" fill="none" stroke="#16457c" stroke-width="1.4" opacity="0.42"/><path d="M298.2 1084.8Q271.4 895.2 150.0 747.1" fill="none" stroke="#3f8f5a" stroke-width="1.4" opacity="0.42"/><path d="M642.0 1209.1Q460.7 909.2 150.0 747.1" fill="none" stroke="#16457c" stroke-width="1.4" opacity="0.42"/><path d="M150.0 747.1Q621.7 1057.9 1186.1 1078.5" fill="none" stroke="#3f8f5a" stroke-width="1.4" opacity="0.42"/><path d="M982.2 1236.7Q634.7 875.4 150.0 747.1" fill="none" stroke="#16457c" stroke-width="1.4" opacity="0.42"/><path d="M610.0 1214.3Q445.4 916.3 150.0 747.1" fill="none" stroke="#16457c" stroke-width="1.4" opacity="0.42"/><path d="M1213.1 728.4Q678.9 588.9 150.0 747.1" fill="none" stroke="#16457c" stroke-width="1.4" opacity="0.42"/><path d="M150.0 747.1Q417.3 566.9 552.2 274.1" fill="none" stroke="#3f8f5a" stroke-width="1.4" opacity="0.42"/><path d="M1157.5 458.7Q613.4 461.8 150.0 747.1" fill="none" stroke="#16457c" stroke-width="1.4" opacity="0.42"/><path d="M150.0 747.1Q404.7 550.3 520.2 249.8" fill="none" stroke="#3f8f5a" stroke-width="1.4" opacity="0.42"/><path d="M150.0 747.1Q741.3 733.8 1239.8 415.4" fill="none" stroke="#3f8f5a" stroke-width="1.4" opacity="0.42"/><path d="M150.0 747.1Q287.5 636.5 347.6 470.5" fill="none" stroke="#3f8f5a" stroke-width="1.4" opacity="0.42"/><path d="M150.0 747.1Q608.9 568.2 908.2 177.1" fill="none" stroke="#3f8f5a" stroke-width="1.4" opacity="0.42"/><path d="M1029.6 1212.9Q674.4 946.3 232.4 902.9" fill="none" stroke="#16457c" stroke-width="1.4" opacity="0.42"/><path d="M232.4 902.9Q330.4 671.1 293.8 422.2" fill="none" stroke="#16457c" stroke-width="1.4" opacity="0.42"/><path d="M642.0 1209.1Q480.1 998.7 232.4 902.9" fill="none" stroke="#16457c" stroke-width="1.4" opacity="0.42"/><path d="M1186.1 1078.5Q733.9 857.2 232.4 902.9" fill="none" stroke="#3f8f5a" stroke-width="1.4" opacity="0.42"/><path d="M610.0 1214.3Q464.8 1005.8 232.4 902.9" fill="none" stroke="#16457c" stroke-width="1.4" opacity="0.42"/><path d="M232.4 902.9Q747.2 953.0 1213.1 728.4" fill="none" stroke="#16457c" stroke-width="1.4" opacity="0.42"/><path d="M232.4 902.9Q480.4 633.3 552.2 274.1" fill="none" stroke="#16457c" stroke-width="1.4" opacity="0.42"/><path d="M232.4 902.9Q668.3 643.0 905.8 194.5" fill="none" stroke="#16457c" stroke-width="1.4" opacity="0.42"/><path d="M340.6 1114.0Q316.1 993.3 232.4 902.9" fill="none" stroke="#16457c" stroke-width="1.4" opacity="0.42"/><path d="M232.4 902.9Q467.7 616.7 520.2 249.8" fill="none" stroke="#16457c" stroke-width="1.4" opacity="0.42"/><path d="M1239.8 415.4Q667.8 518.1 232.4 902.9" fill="none" stroke="#16457c" stroke-width="1.4" opacity="0.42"/><path d="M1029.6 1212.9Q681.8 1046.5 298.2 1084.8" fill="none" stroke="#16457c" stroke-width="1.4" opacity="0.42"/><path d="M293.8 422.2Q551.0 920.6 1029.6 1212.9" fill="none" stroke="#16457c" stroke-width="1.4" opacity="0.42"/><path d="M1029.6 1212.9Q819.6 1154.9 610.0 1214.3" fill="none" stroke="#16457c" stroke-width="1.4" opacity="0.42"/><path d="M1213.1 728.4Q1053.5 945.0 1029.6 1212.9" fill="none" stroke="#16457c" stroke-width="1.4" opacity="0.42"/><path d="M1029.6 1212.9Q922.3 676.7 552.2 274.1" fill="none" stroke="#16457c" stroke-width="1.4" opacity="0.42"/><path d="M1029.6 1212.9Q1110.3 686.4 905.8 194.5" fill="none" stroke="#16457c" stroke-width="1.4" opacity="0.42"/><path d="M1029.6 1212.9Q698.9 1067.0 340.6 1114.0" fill="none" stroke="#16457c" stroke-width="1.4" opacity="0.42"/><path d="M520.2 249.8Q640.0 802.7 1029.6 1212.9" fill="none" stroke="#16457c" stroke-width="1.4" opacity="0.42"/><path d="M1239.8 415.4Q1023.0 784.7 1029.6 1212.9" fill="none" stroke="#16457c" stroke-width="1.4" opacity="0.42"/><path d="M908.2 177.1Q823.9 712.0 1029.6 1212.9" fill="none" stroke="#3f8f5a" stroke-width="1.4" opacity="0.42"/><path d="M298.2 1084.8Q388.8 752.8 293.8 422.2" fill="none" stroke="#3f8f5a" stroke-width="1.4" opacity="0.42"/><path d="M1186.1 1078.5Q741.3 957.4 298.2 1084.8" fill="none" stroke="#3f8f5a" stroke-width="1.4" opacity="0.42"/><path d="M982.2 1236.7Q661.5 1065.0 298.2 1084.8" fill="none" stroke="#16457c" stroke-width="1.4" opacity="0.42"/><path d="M610.0 1214.3Q472.2 1105.9 298.2 1084.8" fill="none" stroke="#16457c" stroke-width="1.4" opacity="0.42"/><path d="M298.2 1084.8Q805.5 1034.7 1213.1 728.4" fill="none" stroke="#3f8f5a" stroke-width="1.4" opacity="0.42"/><path d="M298.2 1084.8Q538.7 715.0 552.2 274.1" fill="none" stroke="#3f8f5a" stroke-width="1.4" opacity="0.42"/><path d="M298.2 1084.8Q726.6 724.7 905.8 194.5" fill="none" stroke="#3f8f5a" stroke-width="1.4" opacity="0.42"/><path d="M298.2 1084.8Q815.5 892.0 1157.5 458.7" fill="none" stroke="#3f8f5a" stroke-width="1.4" opacity="0.42"/><path d="M1239.8 415.4Q675.3 618.3 298.2 1084.8" fill="none" stroke="#16457c" stroke-width="1.4" opacity="0.42"/><path d="M298.2 1084.8Q408.9 784.6 347.6 470.5" fill="none" stroke="#3f8f5a" stroke-width="1.4" opacity="0.42"/><path d="M908.2 177.1Q476.1 545.5 298.2 1084.8" fill="none" stroke="#3f8f5a" stroke-width="1.4" opacity="0.42"/><path d="M293.8 422.2Q648.0 875.3 1186.1 1078.5" fill="none" stroke="#16457c" stroke-width="1.4" opacity="0.42"/><path d="M610.0 1214.3Q562.8 774.0 293.8 422.2" fill="none" stroke="#16457c" stroke-width="1.4" opacity="0.42"/><path d="M1213.1 728.4Q796.3 446.6 293.8 422.2" fill="none" stroke="#16457c" stroke-width="1.4" opacity="0.42"/><path d="M293.8 422.2Q443.7 384.3 552.2 274.1" fill="none" stroke="#16457c" stroke-width="1.4" opacity="0.42"/><path d="M293.8 422.2Q631.7 394.0 905.8 194.5" fill="none" stroke="#16457c" stroke-width="1.4" opacity="0.42"/><path d="M340.6 1114.0Q414.1 761.5 293.8 422.2" fill="none" stroke="#16457c" stroke-width="1.4" opacity="0.42"/><path d="M293.8 422.2Q767.7 551.2 1239.8 415.4" fill="none" stroke="#16457c" stroke-width="1.4" opacity="0.42"/><path d="M293.8 422.2Q635.3 385.7 908.2 177.1" fill="none" stroke="#16457c" stroke-width="1.4" opacity="0.42"/><path d="M1186.1 1078.5Q895.8 1067.7 642.0 1209.1" fill="none" stroke="#3f8f5a" stroke-width="1.4" opacity="0.42"/><path d="M982.2 1236.7Q816.0 1175.3 642.0 1209.1" fill="none" stroke="#16457c" stroke-width="1.4" opacity="0.42"/><path d="M642.0 1209.1Q916.0 738.7 905.8 194.5" fill="none" stroke="#16457c" stroke-width="1.4" opacity="0.42"/><path d="M642.0 1209.1Q504.6 1119.4 340.6 1114.0" fill="none" stroke="#16457c" stroke-width="1.4" opacity="0.42"/><path d="M642.0 1209.1Q1004.8 906.1 1157.5 458.7" fill="none" stroke="#16457c" stroke-width="1.4" opacity="0.42"/><path d="M520.2 249.8Q446.8 746.6 642.0 1209.1" fill="none" stroke="#16457c" stroke-width="1.4" opacity="0.42"/><path d="M642.0 1209.1Q598.2 798.6 347.6 470.5" fill="none" stroke="#16457c" stroke-width="1.4" opacity="0.42"/><path d="M908.2 177.1Q630.6 655.9 642.0 1209.1" fill="none" stroke="#3f8f5a" stroke-width="1.4" opacity="0.42"/><path d="M1186.1 1078.5Q1062.0 1129.1 982.2 1236.7" fill="none" stroke="#3f8f5a" stroke-width="1.4" opacity="0.42"/><path d="M1186.1 1078.5Q879.1 1065.8 610.0 1214.3" fill="none" stroke="#3f8f5a" stroke-width="1.4" opacity="0.42"/><path d="M1213.1 728.4Q1150.6 899.7 1186.1 1078.5" fill="none" stroke="#16457c" stroke-width="1.4" opacity="0.42"/><path d="M1186.1 1078.5Q981.8 587.6 552.2 274.1" fill="none" stroke="#3f8f5a" stroke-width="1.4" opacity="0.42"/><path d="M1157.5 458.7Q1085.0 772.6 1186.1 1078.5" fill="none" stroke="#16457c" stroke-width="1.4" opacity="0.42"/><path d="M1239.8 415.4Q1120.1 739.5 1186.1 1078.5" fill="none" stroke="#16457c" stroke-width="1.4" opacity="0.42"/><path d="M1186.1 1078.5Q852.0 657.1 347.6 470.5" fill="none" stroke="#3f8f5a" stroke-width="1.4" opacity="0.42"/><path d="M908.2 177.1Q921.0 666.7 1186.1 1078.5" fill="none" stroke="#3f8f5a" stroke-width="1.4" opacity="0.42"/><path d="M1213.1 728.4Q1026.5 950.2 982.2 1236.7" fill="none" stroke="#16457c" stroke-width="1.4" opacity="0.42"/><path d="M552.2 274.1Q632.5 815.6 982.2 1236.7" fill="none" stroke="#16457c" stroke-width="1.4" opacity="0.42"/><path d="M905.8 194.5Q798.1 726.3 982.2 1236.7" fill="none" stroke="#3f8f5a" stroke-width="1.4" opacity="0.42"/><path d="M982.2 1236.7Q678.6 1085.5 340.6 1114.0" fill="none" stroke="#16457c" stroke-width="1.4" opacity="0.42"/><path d="M1157.5 458.7Q960.9 823.1 982.2 1236.7" fill="none" stroke="#16457c" stroke-width="1.4" opacity="0.42"/><path d="M982.2 1236.7Q889.4 678.6 520.2 249.8" fill="none" stroke="#16457c" stroke-width="1.4" opacity="0.42"/><path d="M347.6 470.5Q557.7 942.4 982.2 1236.7" fill="none" stroke="#16457c" stroke-width="1.4" opacity="0.42"/><path d="M982.2 1236.7Q1093.6 696.5 908.2 177.1" fill="none" stroke="#16457c" stroke-width="1.4" opacity="0.42"/><path d="M1213.1 728.4Q843.5 886.9 610.0 1214.3" fill="none" stroke="#16457c" stroke-width="1.4" opacity="0.42"/><path d="M552.2 274.1Q449.5 752.3 610.0 1214.3" fill="none" stroke="#16457c" stroke-width="1.4" opacity="0.42"/><path d="M905.8 194.5Q615.1 663.0 610.0 1214.3" fill="none" stroke="#3f8f5a" stroke-width="1.4" opacity="0.42"/><path d="M610.0 1214.3Q1036.7 903.0 1239.8 415.4" fill="none" stroke="#16457c" stroke-width="1.4" opacity="0.42"/><path d="M610.0 1214.3Q904.3 737.5 908.2 177.1" fill="none" stroke="#16457c" stroke-width="1.4" opacity="0.42"/><path d="M552.2 274.1Q819.0 593.8 1213.1 728.4" fill="none" stroke="#16457c" stroke-width="1.4" opacity="0.42"/><path d="M905.8 194.5Q984.7 504.5 1213.1 728.4" fill="none" stroke="#3f8f5a" stroke-width="1.4" opacity="0.42"/><path d="M1239.8 415.4Q1182.6 568.2 1213.1 728.4" fill="none" stroke="#16457c" stroke-width="1.4" opacity="0.42"/><path d="M908.2 177.1Q983.4 495.5 1213.1 728.4" fill="none" stroke="#3f8f5a" stroke-width="1.4" opacity="0.42"/><path d="M552.2 274.1Q829.0 451.1 1157.5 458.7" fill="none" stroke="#16457c" stroke-width="1.4" opacity="0.42"/><path d="M552.2 274.1Q876.2 441.0 1239.8 415.4" fill="none" stroke="#16457c" stroke-width="1.4" opacity="0.42"/><path d="M552.2 274.1Q743.8 275.5 908.2 177.1" fill="none" stroke="#16457c" stroke-width="1.4" opacity="0.42"/><path d="M905.8 194.5Q494.5 575.1 340.6 1114.0" fill="none" stroke="#3f8f5a" stroke-width="1.4" opacity="0.42"/><path d="M520.2 249.8Q720.7 276.1 905.8 194.5" fill="none" stroke="#16457c" stroke-width="1.4" opacity="0.42"/><path d="M905.8 194.5Q1041.9 351.7 1239.8 415.4" fill="none" stroke="#3f8f5a" stroke-width="1.4" opacity="0.42"/><path d="M347.6 470.5Q665.4 410.6 905.8 194.5" fill="none" stroke="#16457c" stroke-width="1.4" opacity="0.42"/><path d="M1157.5 458.7Q657.3 672.0 340.6 1114.0" fill="none" stroke="#16457c" stroke-width="1.4" opacity="0.42"/><path d="M340.6 1114.0Q551.4 707.1 520.2 249.8" fill="none" stroke="#16457c" stroke-width="1.4" opacity="0.42"/><path d="M340.6 1114.0Q434.2 793.2 347.6 470.5" fill="none" stroke="#16457c" stroke-width="1.4" opacity="0.42"/><path d="M340.6 1114.0Q755.6 725.0 908.2 177.1" fill="none" stroke="#16457c" stroke-width="1.4" opacity="0.42"/><path d="M520.2 249.8Q809.6 443.5 1157.5 458.7" fill="none" stroke="#16457c" stroke-width="1.4" opacity="0.42"/><path d="M347.6 470.5Q754.2 577.9 1157.5 458.7" fill="none" stroke="#16457c" stroke-width="1.4" opacity="0.42"/><path d="M908.2 177.1Q993.4 352.8 1157.5 458.7" fill="none" stroke="#3f8f5a" stroke-width="1.4" opacity="0.42"/><path d="M520.2 249.8Q856.8 433.4 1239.8 415.4" fill="none" stroke="#16457c" stroke-width="1.4" opacity="0.42"/><path d="M347.6 470.5Q464.8 384.3 520.2 249.8" fill="none" stroke="#16457c" stroke-width="1.4" opacity="0.42"/><path d="M347.6 470.5Q669.0 402.3 908.2 177.1" fill="none" stroke="#16457c" stroke-width="1.4" opacity="0.42"/><circle cx="1269.8" cy="686.8" r="4.6" fill="#16457c"/><circle cx="1120.9" cy="1122.1" r="4.6" fill="#3f8f5a"/><circle cx="150.0" cy="747.1" r="4.6" fill="#3f8f5a"/><circle cx="232.4" cy="902.9" r="4.6" fill="#16457c"/><circle cx="1029.6" cy="1212.9" r="4.6" fill="#16457c"/><circle cx="298.2" cy="1084.8" r="4.6" fill="#3f8f5a"/><circle cx="293.8" cy="422.2" r="4.6" fill="#16457c"/><circle cx="642.0" cy="1209.1" r="4.6" fill="#16457c"/><circle cx="1186.1" cy="1078.5" r="4.6" fill="#3f8f5a"/><circle cx="982.2" cy="1236.7" r="4.6" fill="#16457c"/><circle cx="610.0" cy="1214.3" r="4.6" fill="#16457c"/><circle cx="1213.1" cy="728.4" r="4.6" fill="#16457c"/><circle cx="552.2" cy="274.1" r="4.6" fill="#16457c"/><circle cx="905.8" cy="194.5" r="4.6" fill="#3f8f5a"/><circle cx="340.6" cy="1114.0" r="4.6" fill="#16457c"/><circle cx="1157.5" cy="458.7" r="4.6" fill="#16457c"/><circle cx="520.2" cy="249.8" r="4.6" fill="#16457c"/><circle cx="1239.8" cy="415.4" r="4.6" fill="#16457c"/><circle cx="347.6" cy="470.5" r="4.6" fill="#16457c"/><circle cx="908.2" cy="177.1" r="4.6" fill="#3f8f5a"/></svg>