<svg xmlns="http://www.w3.org/2000/svg" width="1500" height="1500" viewBox="0 0 1500 1500"><rect width="1500" height="1500" fill="#0f1115"/><path d="M649.3 272.5Q840.2 721.3 1236.5 1005.6" fill="none" stroke="#16457c" stroke-width="1.4" opacity="0.42"/><path d="M150.0 752.1Q466.8 582.2 649.3 272.5" fill="none" stroke="#3f8f5a" stroke-width="1.4" opacity="0.42"/><path d="M649.3 272.5Q894.3 440.5 1190.9 456.8" fill="none" stroke="#16457c" stroke-width="1.4" opacity="0.42"/><path d="M649.3 272.5Q428.7 612.6 416.9 1017.8" fill="none" stroke="#16457c" stroke-width="1.4" opacity="0.42"/><path d="M649.3 272.5Q499.9 753.8 622.1 1242.6" fill="none" stroke="#16457c" stroke-width="1.4" opacity="0.42"/><path d="M649.3 272.5Q882.5 509.1 1204.7 590.2" fill="none" stroke="#16457c" stroke-width="1.4" opacity="0.42"/><path d="M326.6 738.2Q553.1 550.5 649.3 272.5" fill="none" stroke="#3f8f5a" stroke-width="1.4" opacity="0.42"/><path d="M427.8 414.6Q558.4 374.5 649.3 272.5" fill="none" stroke="#16457c" stroke-width="1.4" opacity="0.42"/><path d="M372.3 1075.8Q623.3 712.9 649.3 272.5" fill="none" stroke="#16457c" stroke-width="1.4" opacity="0.42"/><path d="M1033.9 1198.9Q971.3 681.9 649.3 272.5" fill="none" stroke="#16457c" stroke-width="1.4" opacity="0.42"/><path d="M649.3 272.5Q849.6 334.4 1052.9 283.2" fill="none" stroke="#16457c" stroke-width="1.4" opacity="0.42"/><path d="M1209.5 899.1Q1017.1 507.3 649.3 272.5" fill="none" stroke="#3f8f5a" stroke-width="1.4" opacity="0.42"/><path d="M1236.5 1005.6Q728.7 726.8 150.0 752.1" fill="none" stroke="#3f8f5a" stroke-width="1.4" opacity="0.42"/><path d="M1190.9 456.8Q1136.8 737.6 1236.5 1005.6" fill="none" stroke="#16457c" stroke-width="1.4" opacity="0.42"/><path d="M1236.5 1005.6Q824.9 897.0 416.9 1017.8" fill="none" stroke="#3f8f5a" stroke-width="1.4" opacity="0.42"/><path d="M1236.5 1005.6Q907.5 942.5 593.7 1059.5" fill="none" stroke="#3f8f5a" stroke-width="1.4" opacity="0.42"/><path d="M1236.5 1005.6Q896.1 1038.1 622.1 1242.6" fill="none" stroke="#3f8f5a" stroke-width="1.4" opacity="0.42"/><path d="M1236.5 1005.6Q1062.2 710.5 759.9 548.8" fill="none" stroke="#3f8f5a" stroke-width="1.4" opacity="0.42"/><path d="M326.6 738.2Q744.1 999.3 1236.5 1005.6" fill="none" stroke="#3f8f5a" stroke-width="1.4" opacity="0.42"/><path d="M1236.5 1005.6Q914.9 596.9 427.8 414.6" fill="none" stroke="#3f8f5a" stroke-width="1.4" opacity="0.42"/><path d="M372.3 1075.8Q814.2 1161.7 1236.5 1005.6" fill="none" stroke="#16457c" stroke-width="1.4" opacity="0.42"/><path d="M1236.5 1005.6Q1108.1 1073.9 1033.9 1198.9" fill="none" stroke="#3f8f5a" stroke-width="1.4" opacity="0.42"/><path d="M822.6 440.2Q950.4 780.8 1236.5 1005.6" fill="none" stroke="#16457c" stroke-width="1.4" opacity="0.42"/><path d="M1052.9 283.2Q1043.5 670.1 1236.5 1005.6" fill="none" stroke="#16457c" stroke-width="1.4" opacity="0.42"/><path d="M939.0 1092.0Q592.1 811.6 150.0 752.1" fill="none" stroke="#3f8f5a" stroke-width="1.4" opacity="0.42"/><path d="M622.1 1242.6Q454.7 931.3 150.0 752.1" fill="none" stroke="#16457c" stroke-width="1.4" opacity="0.42"/><path d="M150.0 752.1Q349.8 597.7 440.4 361.9" fill="none" stroke="#3f8f5a" stroke-width="1.4" opacity="0.42"/><path d="M1204.7 590.2Q654.7 523.5 150.0 752.1" fill="none" stroke="#16457c" stroke-width="1.4" opacity="0.42"/><path d="M759.9 548.8Q426.5 565.1 150.0 752.1" fill="none" stroke="#16457c" stroke-width="1.4" opacity="0.42"/><path d="M812.5 1113.8Q531.9 840.2 150.0 752.1" fill="none" stroke="#16457c" stroke-width="1.4" opacity="0.42"/><path d="M150.0 752.1Q488.5 676.7 738.5 436.4" fill="none" stroke="#3f8f5a" stroke-width="1.4" opacity="0.42"/><path d="M372.3 1075.8Q306.5 882.9 150.0 752.1" fill="none" stroke="#16457c" stroke-width="1.4" opacity="0.42"/><path d="M150.0 752.1Q529.4 1099.3 1033.9 1198.9" fill="none" stroke="#3f8f5a" stroke-width="1.4" opacity="0.42"/><path d="M150.0 752.1Q530.0 690.3 822.6 440.2" fill="none" stroke="#3f8f5a" stroke-width="1.4" opacity="0.42"/><path d="M150.0 752.1Q667.1 644.1 1052.9 283.2" fill="none" stroke="#3f8f5a" stroke-width="1.4" opacity="0.42"/><path d="M150.0 752.1Q659.2 973.9 1209.5 899.1" fill="none" stroke="#3f8f5a" stroke-width="1.4" opacity="0.42"/><path d="M416.9 1017.8Q882.4 845.7 1190.9 456.8" fill="none" stroke="#16457c" stroke-width="1.4" opacity="0.42"/><path d="M1190.9 456.8Q807.9 674.5 593.7 1059.5" fill="none" stroke="#16457c" stroke-width="1.4" opacity="0.42"/><path d="M622.1 1242.6Q1016.5 929.4 1190.9 456.8" fill="none" stroke="#16457c" stroke-width="1.4" opacity="0.42"/><path d="M440.4 361.9Q802.3 514.4 1190.9 456.8" fill="none" stroke="#3f8f5a" stroke-width="1.4" opacity="0.42"/><path d="M759.9 548.8Q988.3 563.1 1190.9 456.8" fill="none" stroke="#16457c" stroke-width="1.4" opacity="0.42"/><path d="M1190.9 456.8Q909.7 732.3 812.5 1113.8" fill="none" stroke="#16457c" stroke-width="1.4" opacity="0.42"/><path d="M1190.9 456.8Q967.6 383.3 738.5 436.4" fill="none" stroke="#16457c" stroke-width="1.4" opacity="0.42"/><path d="M1190.9 456.8Q719.3 476.5 326.6 738.2" fill="none" stroke="#16457c" stroke-width="1.4" opacity="0.42"/><path d="M427.8 414.6Q803.4 542.5 1190.9 456.8" fill="none" stroke="#16457c" stroke-width="1.4" opacity="0.42"/><path d="M1190.9 456.8Q1008.5 805.9 1033.9 1198.9" fill="none" stroke="#16457c" stroke-width="1.4" opacity="0.42"/><path d="M822.6 440.2Q1004.4 500.0 1190.9 456.8" fill="none" stroke="#16457c" stroke-width="1.4" opacity="0.42"/><path d="M416.9 1017.8Q667.6 1128.0 939.0 1092.0" fill="none" stroke="#16457c" stroke-width="1.4" opacity="0.42"/><path d="M593.7 1059.5Q511.1 1013.9 416.9 1017.8" fill="none" stroke="#16457c" stroke-width="1.4" opacity="0.42"/><path d="M416.9 1017.8Q654.1 831.3 759.9 548.8" fill="none" stroke="#16457c" stroke-width="1.4" opacity="0.42"/><path d="M812.5 1113.8Q628.1 1010.4 416.9 1017.8" fill="none" stroke="#16457c" stroke-width="1.4" opacity="0.42"/><path d="M416.9 1017.8Q659.1 772.2 738.5 436.4" fill="none" stroke="#16457c" stroke-width="1.4" opacity="0.42"/><path d="M416.9 1017.8Q410.9 865.4 326.6 738.2" fill="none" stroke="#16457c" stroke-width="1.4" opacity="0.42"/><path d="M416.9 1017.8Q506.8 717.7 427.8 414.6" fill="none" stroke="#16457c" stroke-width="1.4" opacity="0.42"/><path d="M1033.9 1198.9Q750.7 1022.0 416.9 1017.8" fill="none" stroke="#16457c" stroke-width="1.4" opacity="0.42"/><path d="M822.6 440.2Q538.9 672.2 416.9 1017.8" fill="none" stroke="#16457c" stroke-width="1.4" opacity="0.42"/><path d="M1209.5 899.1Q796.5 847.5 416.9 1017.8" fill="none" stroke="#3f8f5a" stroke-width="1.4" opacity="0.42"/><path d="M939.0 1092.0Q770.9 1027.4 593.7 1059.5" fill="none" stroke="#3f8f5a" stroke-width="1.4" opacity="0.42"/><path d="M440.4 361.9Q587.5 796.8 939.0 1092.0" fill="none" stroke="#3f8f5a" stroke-width="1.4" opacity="0.42"/><path d="M1204.7 590.2Q1001.6 803.9 939.0 1092.0" fill="none" stroke="#16457c" stroke-width="1.4" opacity="0.42"/><path d="M759.9 548.8Q773.4 845.5 939.0 1092.0" fill="none" stroke="#16457c" stroke-width="1.4" opacity="0.42"/><path d="M939.0 1092.0Q872.8 1085.2 812.5 1113.8" fill="none" stroke="#3f8f5a" stroke-width="1.4" opacity="0.42"/><path d="M939.0 1092.0Q930.6 736.1 738.5 436.4" fill="none" stroke="#3f8f5a" stroke-width="1.4" opacity="0.42"/><path d="M939.0 1092.0Q682.4 829.4 326.6 738.2" fill="none" stroke="#3f8f5a" stroke-width="1.4" opacity="0.42"/><path d="M939.0 1092.0Q657.9 1004.6 372.3 1075.8" fill="none" stroke="#3f8f5a" stroke-width="1.4" opacity="0.42"/><path d="M822.6 440.2Q789.6 782.4 939.0 1092.0" fill="none" stroke="#16457c" stroke-width="1.4" opacity="0.42"/><path d="M939.0 1092.0Q1109.2 703.5 1052.9 283.2" fill="none" stroke="#3f8f5a" stroke-width="1.4" opacity="0.42"/><path d="M1209.5 899.1Q1047.3 957.7 939.0 1092.0" fill="none" stroke="#3f8f5a" stroke-width="1.4" opacity="0.42"/><path d="M593.7 1059.5Q614.7 689.2 440.4 361.9" fill="none" stroke="#16457c" stroke-width="1.4" opacity="0.42"/><path d="M759.9 548.8Q605.3 780.9 593.7 1059.5" fill="none" stroke="#16457c" stroke-width="1.4" opacity="0.42"/><path d="M812.5 1113.8Q710.7 1056.0 593.7 1059.5" fill="none" stroke="#16457c" stroke-width="1.4" opacity="0.42"/><path d="M593.7 1059.5Q753.3 768.2 738.5 436.4" fill="none" stroke="#16457c" stroke-width="1.4" opacity="0.42"/><path d="M593.7 1059.5Q505.1 861.4 326.6 738.2" fill="none" stroke="#16457c" stroke-width="1.4" opacity="0.42"/><path d="M427.8 414.6Q420.4 760.2 593.7 1059.5" fill="none" stroke="#16457c" stroke-width="1.4" opacity="0.42"/><path d="M593.7 1059.5Q794.9 781.9 822.6 440.2" fill="none" stroke="#16457c" stroke-width="1.4" opacity="0.42"/><path d="M593.7 1059.5Q924.0 1065.5 1209.5 899.1" fill="none" stroke="#16457c" stroke-width="1.4" opacity="0.42"/><path d="M440.4 361.9Q407.9 827.7 622.1 1242.6" fill="none" stroke="#3f8f5a" stroke-width="1.4" opacity="0.42"/><path d="M1204.7 590.2Q822.1 834.9 622.1 1242.6" fill="none" stroke="#16457c" stroke-width="1.4" opacity="0.42"/><path d="M622.1 1242.6Q545.0 949.0 326.6 738.2" fill="none" stroke="#16457c" stroke-width="1.4" opacity="0.42"/><path d="M622.1 1242.6Q640.9 801.4 427.8 414.6" fill="none" stroke="#16457c" stroke-width="1.4" opacity="0.42"/><path d="M622.1 1242.6Q520.5 1124.2 372.3 1075.8" fill="none" stroke="#16457c" stroke-width="1.4" opacity="0.42"/><path d="M1033.9 1198.9Q821.9 1163.1 622.1 1242.6" fill="none" stroke="#16457c" stroke-width="1.4" opacity="0.42"/><path d="M622.1 1242.6Q971.8 823.2 1052.9 283.2" fill="none" stroke="#16457c" stroke-width="1.4" opacity="0.42"/><path d="M1209.5 899.1Q867.7 988.6 622.1 1242.6" fill="none" stroke="#3f8f5a" stroke-width="1.4" opacity="0.42"/><path d="M440.4 361.9Q790.6 583.1 1204.7 590.2" fill="none" stroke="#3f8f5a" stroke-width="1.4" opacity="0.42"/><path d="M440.4 361.9Q574.0 500.1 759.9 548.8" fill="none" stroke="#3f8f5a" stroke-width="1.4" opacity="0.42"/><path d="M812.5 1113.8Q731.7 685.7 440.4 361.9" fill="none" stroke="#16457c" stroke-width="1.4" opacity="0.42"/><path d="M440.4 361.9Q579.0 440.9 738.5 436.4" fill="none" stroke="#3f8f5a" stroke-width="1.4" opacity="0.42"/><path d="M372.3 1075.8Q506.3 728.4 440.4 361.9" fill="none" stroke="#16457c" stroke-width="1.4" opacity="0.42"/><path d="M822.6 440.2Q642.5 347.5 440.4 361.9" fill="none" stroke="#16457c" stroke-width="1.4" opacity="0.42"/><path d="M440.4 361.9Q757.7 408.3 1052.9 283.2" fill="none" stroke="#3f8f5a" stroke-width="1.4" opacity="0.42"/><path d="M1209.5 899.1Q900.1 522.8 440.4 361.9" fill="none" stroke="#3f8f5a" stroke-width="1.4" opacity="0.42"/><path d="M812.5 1113.8Q1081.9 906.9 1204.7 590.2" fill="none" stroke="#16457c" stroke-width="1.4" opacity="0.42"/><path d="M738.5 436.4Q950.1 578.6 1204.7 590.2" fill="none" stroke="#16457c" stroke-width="1.4" opacity="0.42"/><path d="M326.6 738.2Q786.4 787.2 1204.7 590.2" fill="none" stroke="#3f8f5a" stroke-width="1.4" opacity="0.42"/><path d="M1204.7 590.2Q840.8 393.6 427.8 414.6" fill="none" stroke="#16457c" stroke-width="1.4" opacity="0.42"/><path d="M372.3 1075.8Q856.5 949.6 1204.7 590.2" fill="none" stroke="#16457c" stroke-width="1.4" opacity="0.42"/><path d="M1204.7 590.2Q1034.1 870.7 1033.9 1198.9" fill="none" stroke="#16457c" stroke-width="1.4" opacity="0.42"/><path d="M1052.9 283.2Q1085.8 458.0 1204.7 590.2" fill="none" stroke="#16457c" stroke-width="1.4" opacity="0.42"/><path d="M1204.7 590.2Q1163.9 745.3 1209.5 899.1" fill="none" stroke="#16457c" stroke-width="1.4" opacity="0.42"/><path d="M812.5 1113.8Q865.3 823.9 759.9 548.8" fill="none" stroke="#16457c" stroke-width="1.4" opacity="0.42"/><path d="M738.5 436.4Q733.5 495.6 759.9 548.8" fill="none" stroke="#16457c" stroke-width="1.4" opacity="0.42"/><path d="M326.6 738.2Q569.8 704.2 759.9 548.8" fill="none" stroke="#3f8f5a" stroke-width="1.4" opacity="0.42"/><path d="M759.9 548.8Q806.5 503.3 822.6 440.2" fill="none" stroke="#16457c" stroke-width="1.4" opacity="0.42"/><path d="M759.9 548.8Q935.7 786.9 1209.5 899.1" fill="none" stroke="#16457c" stroke-width="1.4" opacity="0.42"/><path d="M738.5 436.4Q680.7 785.4 812.5 1113.8" fill="none" stroke="#16457c" stroke-width="1.4" opacity="0.42"/><path d="M326.6 738.2Q517.0 994.0 812.5 1113.8" fill="none" stroke="#3f8f5a" stroke-width="1.4" opacity="0.42"/><path d="M822.6 440.2Q723.3 775.5 812.5 1113.8" fill="none" stroke="#16457c" stroke-width="1.4" opacity="0.42"/><path d="M1209.5 899.1Q981.0 950.8 812.5 1113.8" fill="none" stroke="#3f8f5a" stroke-width="1.4" opacity="0.42"/><path d="M738.5 436.4Q465.9 704.8 372.3 1075.8" fill="none" stroke="#16457c" stroke-width="1.4" opacity="0.42"/><path d="M738.5 436.4Q780.1 450.1 822.6 440.2" fill="none" stroke="#16457c" stroke-width="1.4" opacity="0.42"/><path d="M738.5 436.4Q909.3 733.7 1209.5 899.1" fill="none" stroke="#16457c" stroke-width="1.4" opacity="0.42"/><path d="M326.6 738.2Q422.5 590.6 427.8 414.6" fill="none" stroke="#3f8f5a" stroke-width="1.4" opacity="0.42"/><path d="M1033.9 1198.9Q744.7 869.6 326.6 738.2" fill="none" stroke="#16457c" stroke-width="1.4" opacity="0.42"/><path d="M326.6 738.2Q616.3 658.6 822.6 440.2" fill="none" stroke="#3f8f5a" stroke-width="1.4" opacity="0.42"/><path d="M1052.9 283.2Q626.0 409.0 326.6 738.2" fill="none" stroke="#16457c" stroke-width="1.4" opacity="0.42"/><path d="M372.3 1075.8Q492.6 753.0 427.8 414.6" fill="none" stroke="#16457c" stroke-width="1.4" opacity="0.42"/><path d="M427.8 414.6Q621.0 891.6 1033.9 1198.9" fill="none" stroke="#16457c" stroke-width="1.4" opacity="0.42"/><path d="M427.8 414.6Q758.7 436.4 1052.9 283.2" fill="none" stroke="#16457c" stroke-width="1.4" opacity="0.42"/><path d="M427.8 414.6Q750.8 766.3 1209.5 899.1" fill="none" stroke="#16457c" stroke-width="1.4" opacity="0.42"/><path d="M1033.9 1198.9Q720.3 1044.8 372.3 1075.8" fill="none" stroke="#16457c" stroke-width="1.4" opacity="0.42"/><path d="M1052.9 283.2Q601.6 584.2 372.3 1075.8" fill="none" stroke="#16457c" stroke-width="1.4" opacity="0.42"/><path d="M1209.5 899.1Q766.1 870.2 372.3 1075.8" fill="none" stroke="#3f8f5a" stroke-width="1.4" opacity="0.42"/><path d="M1033.9 1198.9Q1034.5 790.0 822.6 440.2" fill="none" stroke="#16457c" stroke-width="1.4" opacity="0.42"/><path d="M1052.9 283.2Q915.2 738.4 1033.9 1198.9" fill="none" stroke="#16457c" stroke-width="1.4" opacity="0.42"/><path d="M1052.9 283.2Q1045.0 613.0 1209.5 899.1" fill="none" stroke="#16457c" stroke-width="1.4" opacity="0.42"/><circle cx="649.3" cy="272.5" r="4.6" fill="#16457c"/><circle cx="1236.5" cy="1005.6" r="4.6" fill="#3f8f5a"/><circle cx="150.0" cy="752.1" r="4.6" fill="#3f8f5a"/><circle cx="1190.9" cy="456.8" r="4.6" fill="#16457c"/><circle cx="416.9" cy="1017.8" r="4.6" fill="#16457c"/><circle cx="939.0" cy="1092.0" r="4.6" fill="#3f8f5a"/><circle cx="593.7" cy="1059.5" r="4.6" fill="#16457c"/><circle cx="622.1" cy="1242.6" r="4.6" fill="#16457c"/><circle cx="440.4" cy="361.9" r="4.6" fill="#3f8f5a"/><circle cx="1204.7" cy="590.2" r="4.6" fill="#16457c"/><circle cx="759.9" cy="548.8" r="4.6" fill="#16457c"/><circle cx="812.5" cy="1113.8" r="4.6" fill="#16457c"/><circle cx="738.5" cy="436.4" r="4.6" fill="#16457c"/><circle cx="326.6" cy="738.2" r="4.6" fill="#3f8f5a"/><circle cx="427.8" cy="414.6" r="4.6" fill="#16457c"/><circle cx="372.3" cy="1075.8" r="4.6" fill="#16457c"/><circle cx="1033.9" cy="1198.9" r="4.6" fill="#16457c"/><circle cx="822.6" cy="440.2" r="4.6" fill="#16457c"/><circle cx="1052.9" cy="283.2" r="4.6" fill="#16457c"/><circle cx="1209.5" cy="899.1" r="4.6" fill="#3f8f5a"/></svg>