<svg xmlns="http://www.w3.org/2000/svg" width="1500" height="1500" viewBox="0 0 1500 1500"><rect width="1500" height="1500" fill="#0f1115"/><path d="M557.7 356.7Q777.4 510.2 1044.9 527.2" fill="none" stroke="#16457c" stroke-width="1.4" opacity="0.42"/><path d="M557.7 356.7Q817.7 755.6 1247.0 961.5" fill="none" stroke="#16457c" stroke-width="1.4" opacity="0.42"/><path d="M557.7 356.7Q705.1 343.4 824.2 255.4" fill="none" stroke="#16457c" stroke-width="1.4" opacity="0.42"/><path d="M557.7 356.7Q412.9 799.2 519.0 1252.6" fill="none" stroke="#16457c" stroke-width="1.4" opacity="0.42"/><path d="M557.7 356.7Q826.1 655.0 1210.4 770.6" fill="none" stroke="#16457c" stroke-width="1.4" opacity="0.42"/><path d="M557.7 356.7Q802.7 380.0 1024.2 272.6" fill="none" stroke="#16457c" stroke-width="1.4" opacity="0.42"/><path d="M1044.9 527.2Q1085.2 772.7 1247.0 961.5" fill="none" stroke="#16457c" stroke-width="1.4" opacity="0.42"/><path d="M1044.9 527.2Q612.1 714.7 339.6 1099.6" fill="none" stroke="#16457c" stroke-width="1.4" opacity="0.42"/><path d="M1044.9 527.2Q565.1 517.4 150.0 758.0" fill="none" stroke="#16457c" stroke-width="1.4" opacity="0.42"/><path d="M1044.9 527.2Q887.7 857.6 924.9 1221.6" fill="none" stroke="#16457c" stroke-width="1.4" opacity="0.42"/><path d="M1044.9 527.2Q1056.9 734.0 1174.6 904.5" fill="none" stroke="#16457c" stroke-width="1.4" opacity="0.42"/><path d="M1044.9 527.2Q1098.0 582.0 1171.8 601.2" fill="none" stroke="#16457c" stroke-width="1.4" opacity="0.42"/><path d="M1247.0 961.5Q840.4 621.1 316.0 541.4" fill="none" stroke="#16457c" stroke-width="1.4" opacity="0.42"/><path d="M1247.0 961.5Q774.0 903.5 339.6 1099.6" fill="none" stroke="#16457c" stroke-width="1.4" opacity="0.42"/><path d="M1247.0 961.5Q1090.0 1022.2 987.4 1155.6" fill="none" stroke="#16457c" stroke-width="1.4" opacity="0.42"/><path d="M1247.0 961.5Q842.3 1005.1 519.0 1252.6" fill="none" stroke="#16457c" stroke-width="1.4" opacity="0.42"/><path d="M1247.0 961.5Q987.9 556.1 555.9 344.2" fill="none" stroke="#16457c" stroke-width="1.4" opacity="0.42"/><path d="M1247.0 961.5Q980.4 1041.4 794.0 1248.1" fill="none" stroke="#16457c" stroke-width="1.4" opacity="0.42"/><path d="M824.2 255.4Q896.5 422.2 1044.9 527.2" fill="none" stroke="#16457c" stroke-width="1.4" opacity="0.42"/><path d="M824.2 255.4Q542.3 606.6 483.8 1053.1" fill="none" stroke="#16457c" stroke-width="1.4" opacity="0.42"/><path d="M824.2 255.4Q945.2 567.1 1210.4 770.6" fill="none" stroke="#16457c" stroke-width="1.4" opacity="0.42"/><path d="M824.2 255.4Q908.5 629.0 1174.6 904.5" fill="none" stroke="#16457c" stroke-width="1.4" opacity="0.42"/><path d="M824.2 255.4Q949.6 477.0 1171.8 601.2" fill="none" stroke="#16457c" stroke-width="1.4" opacity="0.42"/><path d="M824.2 255.4Q670.1 747.5 794.0 1248.1" fill="none" stroke="#16457c" stroke-width="1.4" opacity="0.42"/><path d="M483.8 1053.1Q618.2 715.2 557.7 356.7" fill="none" stroke="#16457c" stroke-width="1.4" opacity="0.42"/><path d="M483.8 1053.1Q837.9 868.7 1044.9 527.2" fill="none" stroke="#16457c" stroke-width="1.4" opacity="0.42"/><path d="M483.8 1053.1Q524.3 781.1 417.7 527.6" fill="none" stroke="#16457c" stroke-width="1.4" opacity="0.42"/><path d="M483.8 1053.1Q471.5 773.7 316.0 541.4" fill="none" stroke="#16457c" stroke-width="1.4" opacity="0.42"/><path d="M483.8 1053.1Q358.2 858.8 150.0 758.0" fill="none" stroke="#16457c" stroke-width="1.4" opacity="0.42"/><path d="M483.8 1053.1Q886.6 1013.6 1210.4 770.6" fill="none" stroke="#16457c" stroke-width="1.4" opacity="0.42"/><path d="M417.7 527.6Q731.3 615.2 1044.9 527.2" fill="none" stroke="#16457c" stroke-width="1.4" opacity="0.42"/><path d="M417.7 527.6Q771.6 860.6 1247.0 961.5" fill="none" stroke="#16457c" stroke-width="1.4" opacity="0.42"/><path d="M417.7 527.6Q659.1 448.4 824.2 255.4" fill="none" stroke="#16457c" stroke-width="1.4" opacity="0.42"/><path d="M417.7 527.6Q512.5 455.2 555.9 344.2" fill="none" stroke="#16457c" stroke-width="1.4" opacity="0.42"/><path d="M417.7 527.6Q574.2 945.6 924.9 1221.6" fill="none" stroke="#16457c" stroke-width="1.4" opacity="0.42"/><path d="M417.7 527.6Q674.3 520.1 889.6 380.4" fill="none" stroke="#16457c" stroke-width="1.4" opacity="0.42"/><path d="M316.0 541.4Q462.7 482.9 557.7 356.7" fill="none" stroke="#16457c" stroke-width="1.4" opacity="0.42"/><path d="M316.0 541.4Q610.1 469.5 824.2 255.4" fill="none" stroke="#16457c" stroke-width="1.4" opacity="0.42"/><path d="M316.0 541.4Q565.7 942.5 987.4 1155.6" fill="none" stroke="#16457c" stroke-width="1.4" opacity="0.42"/><path d="M316.0 541.4Q707.7 506.1 1024.2 272.6" fill="none" stroke="#16457c" stroke-width="1.4" opacity="0.42"/><path d="M316.0 541.4Q694.5 843.2 1174.6 904.5" fill="none" stroke="#16457c" stroke-width="1.4" opacity="0.42"/><path d="M316.0 541.4Q625.4 541.2 889.6 380.4" fill="none" stroke="#16457c" stroke-width="1.4" opacity="0.42"/><path d="M339.6 1099.6Q458.8 824.5 417.7 527.6" fill="none" stroke="#16457c" stroke-width="1.4" opacity="0.42"/><path d="M339.6 1099.6Q406.0 817.2 316.0 541.4" fill="none" stroke="#16457c" stroke-width="1.4" opacity="0.42"/><path d="M339.6 1099.6Q553.5 752.2 555.9 344.2" fill="none" stroke="#16457c" stroke-width="1.4" opacity="0.42"/><path d="M339.6 1099.6Q399.9 937.7 367.2 768.0" fill="none" stroke="#16457c" stroke-width="1.4" opacity="0.42"/><path d="M339.6 1099.6Q797.7 782.0 1024.2 272.6" fill="none" stroke="#16457c" stroke-width="1.4" opacity="0.42"/><path d="M339.6 1099.6Q825.5 966.9 1171.8 601.2" fill="none" stroke="#16457c" stroke-width="1.4" opacity="0.42"/><path d="M150.0 758.0Q410.0 614.4 557.7 356.7" fill="none" stroke="#3f8f5a" stroke-width="1.4" opacity="0.42"/><path d="M150.0 758.0Q557.5 601.1 824.2 255.4" fill="none" stroke="#3f8f5a" stroke-width="1.4" opacity="0.42"/><path d="M150.0 758.0Q316.1 680.3 417.7 527.6" fill="none" stroke="#3f8f5a" stroke-width="1.4" opacity="0.42"/><path d="M150.0 758.0Q410.9 607.9 555.9 344.2" fill="none" stroke="#3f8f5a" stroke-width="1.4" opacity="0.42"/><path d="M150.0 758.0Q655.1 637.7 1024.2 272.6" fill="none" stroke="#3f8f5a" stroke-width="1.4" opacity="0.42"/><path d="M150.0 758.0Q641.8 974.7 1174.6 904.5" fill="none" stroke="#3f8f5a" stroke-width="1.4" opacity="0.42"/><path d="M150.0 758.0Q682.8 822.7 1171.8 601.2" fill="none" stroke="#3f8f5a" stroke-width="1.4" opacity="0.42"/><path d="M987.4 1155.6Q884.4 696.0 557.7 356.7" fill="none" stroke="#16457c" stroke-width="1.4" opacity="0.42"/><path d="M987.4 1155.6Q749.9 1033.8 483.8 1053.1" fill="none" stroke="#16457c" stroke-width="1.4" opacity="0.42"/><path d="M987.4 1155.6Q671.3 1036.9 339.6 1099.6" fill="none" stroke="#16457c" stroke-width="1.4" opacity="0.42"/><path d="M987.4 1155.6Q739.6 1138.5 519.0 1252.6" fill="none" stroke="#16457c" stroke-width="1.4" opacity="0.42"/><path d="M987.4 1155.6Q731.6 875.0 367.2 768.0" fill="none" stroke="#16457c" stroke-width="1.4" opacity="0.42"/><path d="M987.4 1155.6Q1047.0 754.3 889.6 380.4" fill="none" stroke="#16457c" stroke-width="1.4" opacity="0.42"/><path d="M519.0 1252.6Q811.2 796.7 824.2 255.4" fill="none" stroke="#16457c" stroke-width="1.4" opacity="0.42"/><path d="M519.0 1252.6Q529.3 1147.9 483.8 1053.1" fill="none" stroke="#16457c" stroke-width="1.4" opacity="0.42"/><path d="M519.0 1252.6Q517.1 868.6 316.0 541.4" fill="none" stroke="#16457c" stroke-width="1.4" opacity="0.42"/><path d="M519.0 1252.6Q403.7 953.7 150.0 758.0" fill="none" stroke="#16457c" stroke-width="1.4" opacity="0.42"/><path d="M519.0 1252.6Q511.0 989.0 367.2 768.0" fill="none" stroke="#16457c" stroke-width="1.4" opacity="0.42"/><path d="M519.0 1252.6Q908.8 833.3 1024.2 272.6" fill="none" stroke="#16457c" stroke-width="1.4" opacity="0.42"/><path d="M555.9 344.2Q774.8 504.2 1044.9 527.2" fill="none" stroke="#16457c" stroke-width="1.4" opacity="0.42"/><path d="M555.9 344.2Q658.0 810.3 987.4 1155.6" fill="none" stroke="#16457c" stroke-width="1.4" opacity="0.42"/><path d="M555.9 344.2Q800.1 373.9 1024.2 272.6" fill="none" stroke="#16457c" stroke-width="1.4" opacity="0.42"/><path d="M555.9 344.2Q717.7 409.0 889.6 380.4" fill="none" stroke="#16457c" stroke-width="1.4" opacity="0.42"/><path d="M555.9 344.2Q827.9 558.9 1171.8 601.2" fill="none" stroke="#16457c" stroke-width="1.4" opacity="0.42"/><path d="M555.9 344.2Q548.4 829.5 794.0 1248.1" fill="none" stroke="#16457c" stroke-width="1.4" opacity="0.42"/><path d="M1210.4 770.6Q795.3 530.8 316.0 541.4" fill="none" stroke="#16457c" stroke-width="1.4" opacity="0.42"/><path d="M1210.4 770.6Q682.0 615.8 150.0 758.0" fill="none" stroke="#16457c" stroke-width="1.4" opacity="0.42"/><path d="M1210.4 770.6Q1045.0 931.9 987.4 1155.6" fill="none" stroke="#16457c" stroke-width="1.4" opacity="0.42"/><path d="M1210.4 770.6Q797.2 914.8 519.0 1252.6" fill="none" stroke="#16457c" stroke-width="1.4" opacity="0.42"/><path d="M1210.4 770.6Q1004.5 956.1 924.9 1221.6" fill="none" stroke="#16457c" stroke-width="1.4" opacity="0.42"/><path d="M1210.4 770.6Q1173.8 832.5 1174.6 904.5" fill="none" stroke="#16457c" stroke-width="1.4" opacity="0.42"/><path d="M924.9 1221.6Q1009.8 724.4 824.2 255.4" fill="none" stroke="#16457c" stroke-width="1.4" opacity="0.42"/><path d="M924.9 1221.6Q727.9 1075.6 483.8 1053.1" fill="none" stroke="#16457c" stroke-width="1.4" opacity="0.42"/><path d="M924.9 1221.6Q649.3 1078.7 339.6 1099.6" fill="none" stroke="#16457c" stroke-width="1.4" opacity="0.42"/><path d="M924.9 1221.6Q602.4 881.3 150.0 758.0" fill="none" stroke="#16457c" stroke-width="1.4" opacity="0.42"/><path d="M924.9 1221.6Q863.3 731.2 555.9 344.2" fill="none" stroke="#16457c" stroke-width="1.4" opacity="0.42"/><path d="M924.9 1221.6Q855.7 1216.6 794.0 1248.1" fill="none" stroke="#16457c" stroke-width="1.4" opacity="0.42"/><path d="M367.2 768.0Q520.0 589.0 557.7 356.7" fill="none" stroke="#16457c" stroke-width="1.4" opacity="0.42"/><path d="M367.2 768.0Q780.0 987.9 1247.0 961.5" fill="none" stroke="#16457c" stroke-width="1.4" opacity="0.42"/><path d="M367.2 768.0Q373.3 647.5 316.0 541.4" fill="none" stroke="#16457c" stroke-width="1.4" opacity="0.42"/><path d="M367.2 768.0Q520.9 582.5 555.9 344.2" fill="none" stroke="#16457c" stroke-width="1.4" opacity="0.42"/><path d="M367.2 768.0Q788.5 887.3 1210.4 770.6" fill="none" stroke="#16457c" stroke-width="1.4" opacity="0.42"/><path d="M367.2 768.0Q682.7 647.3 889.6 380.4" fill="none" stroke="#16457c" stroke-width="1.4" opacity="0.42"/><path d="M1024.2 272.6Q1039.2 648.2 1247.0 961.5" fill="none" stroke="#16457c" stroke-width="1.4" opacity="0.42"/><path d="M1024.2 272.6Q644.7 587.2 483.8 1053.1" fill="none" stroke="#16457c" stroke-width="1.4" opacity="0.42"/><path d="M1024.2 272.6Q882.2 708.9 987.4 1155.6" fill="none" stroke="#16457c" stroke-width="1.4" opacity="0.42"/><path d="M1024.2 272.6Q1047.6 547.7 1210.4 770.6" fill="none" stroke="#16457c" stroke-width="1.4" opacity="0.42"/><path d="M1024.2 272.6Q626.4 428.3 367.2 768.0" fill="none" stroke="#16457c" stroke-width="1.4" opacity="0.42"/><path d="M1024.2 272.6Q1010.9 609.6 1174.6 904.5" fill="none" stroke="#16457c" stroke-width="1.4" opacity="0.42"/><path d="M1174.6 904.5Q942.8 544.2 557.7 356.7" fill="none" stroke="#16457c" stroke-width="1.4" opacity="0.42"/><path d="M1174.6 904.5Q808.4 882.1 483.8 1053.1" fill="none" stroke="#16457c" stroke-width="1.4" opacity="0.42"/><path d="M1174.6 904.5Q849.0 610.1 417.7 527.6" fill="none" stroke="#16457c" stroke-width="1.4" opacity="0.42"/><path d="M1174.6 904.5Q798.1 986.8 519.0 1252.6" fill="none" stroke="#16457c" stroke-width="1.4" opacity="0.42"/><path d="M1174.6 904.5Q1005.4 1028.1 924.9 1221.6" fill="none" stroke="#16457c" stroke-width="1.4" opacity="0.42"/><path d="M1174.6 904.5Q936.2 1023.0 794.0 1248.1" fill="none" stroke="#16457c" stroke-width="1.4" opacity="0.42"/><path d="M889.6 380.4Q987.0 721.0 1247.0 961.5" fill="none" stroke="#3f8f5a" stroke-width="1.4" opacity="0.42"/><path d="M889.6 380.4Q513.9 663.0 339.6 1099.6" fill="none" stroke="#3f8f5a" stroke-width="1.4" opacity="0.42"/><path d="M889.6 380.4Q582.2 764.6 519.0 1252.6" fill="none" stroke="#3f8f5a" stroke-width="1.4" opacity="0.42"/><path d="M889.6 380.4Q995.4 620.4 1210.4 770.6" fill="none" stroke="#3f8f5a" stroke-width="1.4" opacity="0.42"/><path d="M889.6 380.4Q789.5 805.9 924.9 1221.6" fill="none" stroke="#3f8f5a" stroke-width="1.4" opacity="0.42"/><path d="M889.6 380.4Q972.0 345.3 1024.2 272.6" fill="none" stroke="#3f8f5a" stroke-width="1.4" opacity="0.42"/><path d="M889.6 380.4Q999.8 530.3 1171.8 601.2" fill="none" stroke="#3f8f5a" stroke-width="1.4" opacity="0.42"/><path d="M1171.8 601.2Q1159.0 791.9 1247.0 961.5" fill="none" stroke="#16457c" stroke-width="1.4" opacity="0.42"/><path d="M1171.8 601.2Q805.1 458.8 417.7 527.6" fill="none" stroke="#16457c" stroke-width="1.4" opacity="0.42"/><path d="M1171.8 601.2Q1002.0 852.6 987.4 1155.6" fill="none" stroke="#16457c" stroke-width="1.4" opacity="0.42"/><path d="M1171.8 601.2Q961.5 876.9 924.9 1221.6" fill="none" stroke="#16457c" stroke-width="1.4" opacity="0.42"/><path d="M1171.8 601.2Q746.2 572.0 367.2 768.0" fill="none" stroke="#16457c" stroke-width="1.4" opacity="0.42"/><path d="M1171.8 601.2Q892.3 871.8 794.0 1248.1" fill="none" stroke="#16457c" stroke-width="1.4" opacity="0.42"/><path d="M794.0 1248.1Q1020.3 922.8 1044.9 527.2" fill="none" stroke="#3f8f5a" stroke-width="1.4" opacity="0.42"/><path d="M794.0 1248.1Q706.7 835.2 417.7 527.6" fill="none" stroke="#3f8f5a" stroke-width="1.4" opacity="0.42"/><path d="M794.0 1248.1Q587.6 1110.3 339.6 1099.6" fill="none" stroke="#3f8f5a" stroke-width="1.4" opacity="0.42"/><path d="M794.0 1248.1Q540.6 912.9 150.0 758.0" fill="none" stroke="#3f8f5a" stroke-width="1.4" opacity="0.42"/><path d="M794.0 1248.1Q655.9 1211.9 519.0 1252.6" fill="none" stroke="#3f8f5a" stroke-width="1.4" opacity="0.42"/><path d="M794.0 1248.1Q647.8 948.3 367.2 768.0" fill="none" stroke="#3f8f5a" stroke-width="1.4" opacity="0.42"/><path d="M794.0 1248.1Q963.3 827.7 889.6 380.4" fill="none" stroke="#3f8f5a" stroke-width="1.4" opacity="0.42"/><circle cx="557.7" cy="356.7" r="4.6" fill="#16457c"/><circle cx="1044.9" cy="527.2" r="4.6" fill="#16457c"/><circle cx="1247.0" cy="961.5" r="4.6" fill="#16457c"/><circle cx="824.2" cy="255.4" r="4.6" fill="#16457c"/><circle cx="483.8" cy="1053.1" r="4.6" fill="#16457c"/><circle cx="417.7" cy="527.6" r="4.6" fill="#16457c"/><circle cx="316.0" cy="541.4" r="4.6" fill="#16457c"/><circle cx="339.6" cy="1099.6" r="4.6" fill="#16457c"/><circle cx="150.0" cy="758.0" r="4.6" fill="#3f8f5a"/><circle cx="987.4" cy="1155.6" r="4.6" fill="#16457c"/><circle cx="519.0" cy="1252.6" r="4.6" fill="#16457c"/><circle cx="555.9" cy="344.2" r="4.6" fill="#16457c"/><circle cx="1210.4" cy="770.6" r="4.6" fill="#16457c"/><circle cx="924.9" cy="1221.6" r="4.6" fill="#16457c"/><circle cx="367.2" cy="768.0" r="4.6" fill="#16457c"/><circle cx="1024.2" cy="272.6" r="4.6" fill="#16457c"/><circle cx="1174.6" cy="904.5" r="4.6" fill="#16457c"/><circle cx="889.6" cy="380.4" r="4.6" fill="#3f8f5a"/><circle cx="1171.8" cy="601.2" r="4.6" fill="#16457c"/><circle cx="794.0" cy="1248.1" r="4.6" fill="#3f8f5a"/></svg>