<svg xmlns="http://www.w3.org/2000/svg" width="1500" height="1500" viewBox="0 0 1500 1500"><rect width="1500" height="1500" fill="#0f1115"/><path d="M790.0 315.8Q1008.3 614.5 1350.0 756.5" fill="none" stroke="#16457c" stroke-width="1.4" opacity="0.42"/><path d="M790.0 315.8Q679.0 471.5 665.0 662.3" fill="none" stroke="#16457c" stroke-width="1.4" opacity="0.42"/><path d="M790.0 315.8Q797.7 645.7 975.6 923.7" fill="none" stroke="#16457c" stroke-width="1.4" opacity="0.42"/><path d="M790.0 315.8Q652.0 711.1 739.3 1120.7" fill="none" stroke="#16457c" stroke-width="1.4" opacity="0.42"/><path d="M790.0 315.8Q960.2 604.8 1255.8 763.4" fill="none" stroke="#16457c" stroke-width="1.4" opacity="0.42"/><path d="M1350.0 756.5Q875.7 867.1 527.7 1207.8" fill="none" stroke="#c58a3d" stroke-width="1.4" opacity="0.42"/><path d="M1350.0 756.5Q879.0 719.8 457.5 933.0" fill="none" stroke="#c58a3d" stroke-width="1.4" opacity="0.42"/><path d="M1350.0 756.5Q945.8 755.7 599.9 964.9" fill="none" stroke="#c58a3d" stroke-width="1.4" opacity="0.42"/><path d="M1350.0 756.5Q1139.4 787.7 975.6 923.7" fill="none" stroke="#c58a3d" stroke-width="1.4" opacity="0.42"/><path d="M1350.0 756.5Q993.6 853.1 739.3 1120.7" fill="none" stroke="#c58a3d" stroke-width="1.4" opacity="0.42"/><path d="M1350.0 756.5Q975.4 779.9 667.5 994.3" fill="none" stroke="#c58a3d" stroke-width="1.4" opacity="0.42"/><path d="M378.5 569.6Q488.1 606.0 600.6 580.3" fill="none" stroke="#3f8f5a" stroke-width="1.4" opacity="0.42"/><path d="M378.5 569.6Q718.7 695.2 1074.7 625.9" fill="none" stroke="#3f8f5a" stroke-width="1.4" opacity="0.42"/><path d="M378.5 569.6Q631.9 668.0 899.6 620.5" fill="none" stroke="#3f8f5a" stroke-width="1.4" opacity="0.42"/><path d="M378.5 569.6Q526.6 549.5 642.7 455.5" fill="none" stroke="#3f8f5a" stroke-width="1.4" opacity="0.42"/><path d="M378.5 569.6Q627.5 830.3 975.6 923.7" fill="none" stroke="#3f8f5a" stroke-width="1.4" opacity="0.42"/><path d="M378.5 569.6Q543.6 480.8 638.5 319.3" fill="none" stroke="#3f8f5a" stroke-width="1.4" opacity="0.42"/><path d="M378.5 569.6Q790.0 789.3 1255.8 763.4" fill="none" stroke="#3f8f5a" stroke-width="1.4" opacity="0.42"/><path d="M665.0 662.3Q994.3 805.3 1350.0 756.5" fill="none" stroke="#c58a3d" stroke-width="1.4" opacity="0.42"/><path d="M665.0 662.3Q523.3 768.6 457.5 933.0" fill="none" stroke="#c58a3d" stroke-width="1.4" opacity="0.42"/><path d="M665.0 662.3Q589.8 507.1 444.9 413.5" fill="none" stroke="#c58a3d" stroke-width="1.4" opacity="0.42"/><path d="M665.0 662.3Q682.8 555.8 642.7 455.5" fill="none" stroke="#c58a3d" stroke-width="1.4" opacity="0.42"/><path d="M665.0 662.3Q619.7 828.6 667.5 994.3" fill="none" stroke="#c58a3d" stroke-width="1.4" opacity="0.42"/><path d="M665.0 662.3Q946.2 795.6 1255.8 763.4" fill="none" stroke="#c58a3d" stroke-width="1.4" opacity="0.42"/><path d="M600.6 580.3Q732.4 474.6 790.0 315.8" fill="none" stroke="#16457c" stroke-width="1.4" opacity="0.42"/><path d="M600.6 580.3Q831.3 669.5 1074.7 625.9" fill="none" stroke="#16457c" stroke-width="1.4" opacity="0.42"/><path d="M600.6 580.3Q609.5 632.4 644.1 672.3" fill="none" stroke="#16457c" stroke-width="1.4" opacity="0.42"/><path d="M600.6 580.3Q576.1 796.7 667.5 994.3" fill="none" stroke="#16457c" stroke-width="1.4" opacity="0.42"/><path d="M600.6 580.3Q814.6 803.2 1113.2 882.6" fill="none" stroke="#16457c" stroke-width="1.4" opacity="0.42"/><path d="M1074.7 625.9Q987.9 598.7 899.6 620.5" fill="none" stroke="#c58a3d" stroke-width="1.4" opacity="0.42"/><path d="M1074.7 625.9Q719.7 840.3 527.7 1207.8" fill="none" stroke="#c58a3d" stroke-width="1.4" opacity="0.42"/><path d="M1074.7 625.9Q852.9 588.8 644.1 672.3" fill="none" stroke="#c58a3d" stroke-width="1.4" opacity="0.42"/><path d="M1074.7 625.9Q837.7 826.3 739.3 1120.7" fill="none" stroke="#c58a3d" stroke-width="1.4" opacity="0.42"/><path d="M1074.7 625.9Q721.9 846.4 535.0 1218.0" fill="none" stroke="#c58a3d" stroke-width="1.4" opacity="0.42"/><path d="M1074.7 625.9Q1146.0 720.0 1255.8 763.4" fill="none" stroke="#c58a3d" stroke-width="1.4" opacity="0.42"/><path d="M899.6 620.5Q1105.8 751.6 1350.0 756.5" fill="none" stroke="#c58a3d" stroke-width="1.4" opacity="0.42"/><path d="M899.6 620.5Q755.7 558.6 600.6 580.3" fill="none" stroke="#c58a3d" stroke-width="1.4" opacity="0.42"/><path d="M899.6 620.5Q631.4 862.1 527.7 1207.8" fill="none" stroke="#c58a3d" stroke-width="1.4" opacity="0.42"/><path d="M899.6 620.5Q811.2 433.3 638.5 319.3" fill="none" stroke="#c58a3d" stroke-width="1.4" opacity="0.42"/><path d="M899.6 620.5Q633.7 868.2 535.0 1218.0" fill="none" stroke="#c58a3d" stroke-width="1.4" opacity="0.42"/><path d="M899.6 620.5Q969.7 781.5 1113.2 882.6" fill="none" stroke="#c58a3d" stroke-width="1.4" opacity="0.42"/><path d="M527.7 1207.8Q783.8 798.5 790.0 315.8" fill="none" stroke="#3f8f5a" stroke-width="1.4" opacity="0.42"/><path d="M527.7 1207.8Q542.5 867.8 378.5 569.6" fill="none" stroke="#3f8f5a" stroke-width="1.4" opacity="0.42"/><path d="M527.7 1207.8Q672.7 954.3 665.0 662.3" fill="none" stroke="#3f8f5a" stroke-width="1.4" opacity="0.42"/><path d="M527.7 1207.8Q652.0 904.3 600.6 580.3" fill="none" stroke="#3f8f5a" stroke-width="1.4" opacity="0.42"/><path d="M527.7 1207.8Q531.1 1060.6 457.5 933.0" fill="none" stroke="#3f8f5a" stroke-width="1.4" opacity="0.42"/><path d="M527.7 1207.8Q660.9 956.3 644.1 672.3" fill="none" stroke="#3f8f5a" stroke-width="1.4" opacity="0.42"/><path d="M527.7 1207.8Q707.5 779.1 638.5 319.3" fill="none" stroke="#3f8f5a" stroke-width="1.4" opacity="0.42"/><path d="M457.5 933.0Q710.2 671.0 790.0 315.8" fill="none" stroke="#3f8f5a" stroke-width="1.4" opacity="0.42"/><path d="M457.5 933.0Q722.3 838.7 899.6 620.5" fill="none" stroke="#3f8f5a" stroke-width="1.4" opacity="0.42"/><path d="M457.5 933.0Q523.9 671.5 444.9 413.5" fill="none" stroke="#3f8f5a" stroke-width="1.4" opacity="0.42"/><path d="M457.5 933.0Q616.9 720.2 642.7 455.5" fill="none" stroke="#3f8f5a" stroke-width="1.4" opacity="0.42"/><path d="M457.5 933.0Q717.9 1000.9 975.6 923.7" fill="none" stroke="#3f8f5a" stroke-width="1.4" opacity="0.42"/><path d="M457.5 933.0Q633.9 651.5 638.5 319.3" fill="none" stroke="#3f8f5a" stroke-width="1.4" opacity="0.42"/><path d="M457.5 933.0Q572.1 1066.3 739.3 1120.7" fill="none" stroke="#3f8f5a" stroke-width="1.4" opacity="0.42"/><path d="M599.9 964.9Q785.9 667.0 790.0 315.8" fill="none" stroke="#16457c" stroke-width="1.4" opacity="0.42"/><path d="M599.9 964.9Q674.8 822.7 665.0 662.3" fill="none" stroke="#16457c" stroke-width="1.4" opacity="0.42"/><path d="M599.9 964.9Q533.2 929.0 457.5 933.0" fill="none" stroke="#16457c" stroke-width="1.4" opacity="0.42"/><path d="M599.9 964.9Q709.6 647.5 638.5 319.3" fill="none" stroke="#16457c" stroke-width="1.4" opacity="0.42"/><path d="M599.9 964.9Q629.6 989.1 667.5 994.3" fill="none" stroke="#16457c" stroke-width="1.4" opacity="0.42"/><path d="M644.1 672.3Q985.2 813.2 1350.0 756.5" fill="none" stroke="#c58a3d" stroke-width="1.4" opacity="0.42"/><path d="M644.1 672.3Q525.7 583.7 378.5 569.6" fill="none" stroke="#c58a3d" stroke-width="1.4" opacity="0.42"/><path d="M644.1 672.3Q779.1 682.2 899.6 620.5" fill="none" stroke="#c58a3d" stroke-width="1.4" opacity="0.42"/><path d="M644.1 672.3Q514.3 776.5 457.5 933.0" fill="none" stroke="#c58a3d" stroke-width="1.4" opacity="0.42"/><path d="M644.1 672.3Q673.7 563.7 642.7 455.5" fill="none" stroke="#c58a3d" stroke-width="1.4" opacity="0.42"/><path d="M644.1 672.3Q849.2 843.1 1113.2 882.6" fill="none" stroke="#c58a3d" stroke-width="1.4" opacity="0.42"/><path d="M444.9 413.5Q631.1 412.9 790.0 315.8" fill="none" stroke="#3f8f5a" stroke-width="1.4" opacity="0.42"/><path d="M444.9 413.5Q849.4 711.7 1350.0 756.5" fill="none" stroke="#3f8f5a" stroke-width="1.4" opacity="0.42"/><path d="M444.9 413.5Q499.4 518.7 600.6 580.3" fill="none" stroke="#3f8f5a" stroke-width="1.4" opacity="0.42"/><path d="M444.9 413.5Q730.0 607.9 1074.7 625.9" fill="none" stroke="#3f8f5a" stroke-width="1.4" opacity="0.42"/><path d="M444.9 413.5Q643.3 580.7 899.6 620.5" fill="none" stroke="#3f8f5a" stroke-width="1.4" opacity="0.42"/><path d="M444.9 413.5Q445.2 710.9 599.9 964.9" fill="none" stroke="#3f8f5a" stroke-width="1.4" opacity="0.42"/><path d="M444.9 413.5Q801.3 702.0 1255.8 763.4" fill="none" stroke="#3f8f5a" stroke-width="1.4" opacity="0.42"/><path d="M642.7 455.5Q735.9 406.3 790.0 315.8" fill="none" stroke="#3f8f5a" stroke-width="1.4" opacity="0.42"/><path d="M642.7 455.5Q954.2 705.0 1350.0 756.5" fill="none" stroke="#3f8f5a" stroke-width="1.4" opacity="0.42"/><path d="M642.7 455.5Q479.9 815.6 527.7 1207.8" fill="none" stroke="#3f8f5a" stroke-width="1.4" opacity="0.42"/><path d="M642.7 455.5Q550.0 704.2 599.9 964.9" fill="none" stroke="#3f8f5a" stroke-width="1.4" opacity="0.42"/><path d="M642.7 455.5Q659.7 386.8 638.5 319.3" fill="none" stroke="#3f8f5a" stroke-width="1.4" opacity="0.42"/><path d="M642.7 455.5Q818.1 734.9 1113.2 882.6" fill="none" stroke="#3f8f5a" stroke-width="1.4" opacity="0.42"/><path d="M642.7 455.5Q906.1 695.3 1255.8 763.4" fill="none" stroke="#3f8f5a" stroke-width="1.4" opacity="0.42"/><path d="M975.6 923.7Q856.9 749.5 665.0 662.3" fill="none" stroke="#3f8f5a" stroke-width="1.4" opacity="0.42"/><path d="M975.6 923.7Q980.1 761.5 899.6 620.5" fill="none" stroke="#3f8f5a" stroke-width="1.4" opacity="0.42"/><path d="M975.6 923.7Q711.9 1003.1 527.7 1207.8" fill="none" stroke="#3f8f5a" stroke-width="1.4" opacity="0.42"/><path d="M975.6 923.7Q782.0 891.7 599.9 964.9" fill="none" stroke="#3f8f5a" stroke-width="1.4" opacity="0.42"/><path d="M975.6 923.7Q845.1 751.6 644.1 672.3" fill="none" stroke="#3f8f5a" stroke-width="1.4" opacity="0.42"/><path d="M975.6 923.7Q874.7 643.0 642.7 455.5" fill="none" stroke="#3f8f5a" stroke-width="1.4" opacity="0.42"/><path d="M975.6 923.7Q714.1 1009.2 535.0 1218.0" fill="none" stroke="#3f8f5a" stroke-width="1.4" opacity="0.42"/><path d="M638.5 319.3Q933.0 637.5 1350.0 756.5" fill="none" stroke="#c58a3d" stroke-width="1.4" opacity="0.42"/><path d="M638.5 319.3Q603.7 494.5 665.0 662.3" fill="none" stroke="#c58a3d" stroke-width="1.4" opacity="0.42"/><path d="M638.5 319.3Q813.7 533.7 1074.7 625.9" fill="none" stroke="#c58a3d" stroke-width="1.4" opacity="0.42"/><path d="M638.5 319.3Q591.9 496.6 644.1 672.3" fill="none" stroke="#c58a3d" stroke-width="1.4" opacity="0.42"/><path d="M638.5 319.3Q722.5 668.7 975.6 923.7" fill="none" stroke="#c58a3d" stroke-width="1.4" opacity="0.42"/><path d="M638.5 319.3Q797.0 667.4 1113.2 882.6" fill="none" stroke="#c58a3d" stroke-width="1.4" opacity="0.42"/><path d="M739.3 1120.7Q766.3 881.1 665.0 662.3" fill="none" stroke="#c58a3d" stroke-width="1.4" opacity="0.42"/><path d="M739.3 1120.7Q745.6 831.1 600.6 580.3" fill="none" stroke="#c58a3d" stroke-width="1.4" opacity="0.42"/><path d="M739.3 1120.7Q621.3 1134.6 527.7 1207.8" fill="none" stroke="#c58a3d" stroke-width="1.4" opacity="0.42"/><path d="M739.3 1120.7Q691.4 1023.3 599.9 964.9" fill="none" stroke="#c58a3d" stroke-width="1.4" opacity="0.42"/><path d="M739.3 1120.7Q691.1 725.9 444.9 413.5" fill="none" stroke="#c58a3d" stroke-width="1.4" opacity="0.42"/><path d="M739.3 1120.7Q784.1 774.6 642.7 455.5" fill="none" stroke="#c58a3d" stroke-width="1.4" opacity="0.42"/><path d="M535.0 1218.0Q547.5 871.9 378.5 569.6" fill="none" stroke="#c58a3d" stroke-width="1.4" opacity="0.42"/><path d="M535.0 1218.0Q657.1 908.3 600.6 580.3" fill="none" stroke="#c58a3d" stroke-width="1.4" opacity="0.42"/><path d="M535.0 1218.0Q602.9 1100.6 599.9 964.9" fill="none" stroke="#c58a3d" stroke-width="1.4" opacity="0.42"/><path d="M535.0 1218.0Q665.9 960.4 644.1 672.3" fill="none" stroke="#c58a3d" stroke-width="1.4" opacity="0.42"/><path d="M535.0 1218.0Q602.6 803.1 444.9 413.5" fill="none" stroke="#c58a3d" stroke-width="1.4" opacity="0.42"/><path d="M535.0 1218.0Q712.6 783.1 638.5 319.3" fill="none" stroke="#c58a3d" stroke-width="1.4" opacity="0.42"/><path d="M667.5 994.3Q823.7 672.2 790.0 315.8" fill="none" stroke="#3f8f5a" stroke-width="1.4" opacity="0.42"/><path d="M667.5 994.3Q582.5 741.5 378.5 569.6" fill="none" stroke="#3f8f5a" stroke-width="1.4" opacity="0.42"/><path d="M667.5 994.3Q922.6 867.1 1074.7 625.9" fill="none" stroke="#3f8f5a" stroke-width="1.4" opacity="0.42"/><path d="M667.5 994.3Q637.5 672.7 444.9 413.5" fill="none" stroke="#3f8f5a" stroke-width="1.4" opacity="0.42"/><path d="M667.5 994.3Q730.5 721.4 642.7 455.5" fill="none" stroke="#3f8f5a" stroke-width="1.4" opacity="0.42"/><path d="M667.5 994.3Q685.7 1067.5 739.3 1120.7" fill="none" stroke="#3f8f5a" stroke-width="1.4" opacity="0.42"/><path d="M667.5 994.3Q569.9 1087.6 535.0 1218.0" fill="none" stroke="#3f8f5a" stroke-width="1.4" opacity="0.42"/><path d="M1113.2 882.6Q789.7 623.2 378.5 569.6" fill="none" stroke="#c58a3d" stroke-width="1.4" opacity="0.42"/><path d="M1113.2 882.6Q1129.9 748.9 1074.7 625.9" fill="none" stroke="#c58a3d" stroke-width="1.4" opacity="0.42"/><path d="M1113.2 882.6Q774.9 963.3 527.7 1207.8" fill="none" stroke="#c58a3d" stroke-width="1.4" opacity="0.42"/><path d="M1113.2 882.6Q778.3 816.0 457.5 933.0" fill="none" stroke="#c58a3d" stroke-width="1.4" opacity="0.42"/><path d="M1113.2 882.6Q1038.7 883.9 975.6 923.7" fill="none" stroke="#c58a3d" stroke-width="1.4" opacity="0.42"/><path d="M1113.2 882.6Q777.1 969.4 535.0 1218.0" fill="none" stroke="#c58a3d" stroke-width="1.4" opacity="0.42"/><path d="M1255.8 763.4Q953.8 580.1 600.6 580.3" fill="none" stroke="#3f8f5a" stroke-width="1.4" opacity="0.42"/><path d="M1255.8 763.4Q832.9 736.5 457.5 933.0" fill="none" stroke="#3f8f5a" stroke-width="1.4" opacity="0.42"/><path d="M1255.8 763.4Q899.6 772.4 599.9 964.9" fill="none" stroke="#3f8f5a" stroke-width="1.4" opacity="0.42"/><path d="M1255.8 763.4Q947.5 869.7 739.3 1120.7" fill="none" stroke="#3f8f5a" stroke-width="1.4" opacity="0.42"/><path d="M1255.8 763.4Q831.8 889.8 535.0 1218.0" fill="none" stroke="#3f8f5a" stroke-width="1.4" opacity="0.42"/><path d="M1255.8 763.4Q929.3 796.5 667.5 994.3" fill="none" stroke="#3f8f5a" stroke-width="1.4" opacity="0.42"/><path d="M1255.8 763.4Q1167.8 803.1 1113.2 882.6" fill="none" stroke="#3f8f5a" stroke-width="1.4" opacity="0.42"/><circle cx="790.0" cy="315.8" r="4.6" fill="#16457c"/><circle cx="1350.0" cy="756.5" r="4.6" fill="#c58a3d"/><circle cx="378.5" cy="569.6" r="4.6" fill="#3f8f5a"/><circle cx="665.0" cy="662.3" r="4.6" fill="#c58a3d"/><circle cx="600.6" cy="580.3" r="4.6" fill="#16457c"/><circle cx="1074.7" cy="625.9" r="4.6" fill="#c58a3d"/><circle cx="899.6" cy="620.5" r="4.6" fill="#c58a3d"/><circle cx="527.7" cy="1207.8" r="4.6" fill="#3f8f5a"/><circle cx="457.5" cy="933.0" r="4.6" fill="#3f8f5a"/><circle cx="599.9" cy="964.9" r="4.6" fill="#16457c"/><circle cx="644.1" cy="672.3" r="4.6" fill="#c58a3d"/><circle cx="444.9" cy="413.5" r="4.6" fill="#3f8f5a"/><circle cx="642.7" cy="455.5" r="4.6" fill="#3f8f5a"/><circle cx="975.6" cy="923.7" r="4.6" fill="#3f8f5a"/><circle cx="638.5" cy="319.3" r="4.6" fill="#c58a3d"/><circle cx="739.3" cy="1120.7" r="4.6" fill="#c58a3d"/><circle cx="535.0" cy="1218.0" r="4.6" fill="#c58a3d"/><circle cx="667.5" cy="994.3" r="4.6" fill="#3f8f5a"/><circle cx="1113.2" cy="882.6" r="4.6" fill="#c58a3d"/><circle cx="1255.8" cy="763.4" r="4.6" fill="#3f8f5a"/></svg>