<svg xmlns="http://www.w3.org/2000/svg" width="1500" height="1500" viewBox="0 0 1500 1500"><rect width="1500" height="1500" fill="#0f1115"/><path d="M794.3 1315.7Q550.6 945.1 150.0 754.9" fill="none" stroke="#3f8f5a" stroke-width="1.4" opacity="0.42"/><path d="M794.3 1315.7Q909.5 810.8 745.8 319.4" fill="none" stroke="#3f8f5a" stroke-width="1.4" opacity="0.42"/><path d="M794.3 1315.7Q743.3 1117.6 596.9 974.8" fill="none" stroke="#3f8f5a" stroke-width="1.4" opacity="0.42"/><path d="M794.3 1315.7Q644.5 834.5 266.7 501.0" fill="none" stroke="#3f8f5a" stroke-width="1.4" opacity="0.42"/><path d="M794.3 1315.7Q612.4 1098.9 344.4 1008.1" fill="none" stroke="#3f8f5a" stroke-width="1.4" opacity="0.42"/><path d="M794.3 1315.7Q773.3 826.7 501.5 419.8" fill="none" stroke="#3f8f5a" stroke-width="1.4" opacity="0.42"/><path d="M794.3 1315.7Q800.7 1147.4 718.8 1000.3" fill="none" stroke="#3f8f5a" stroke-width="1.4" opacity="0.42"/><path d="M150.0 754.9Q653.6 872.9 1145.3 712.2" fill="none" stroke="#3f8f5a" stroke-width="1.4" opacity="0.42"/><path d="M150.0 754.9Q592.4 635.3 908.4 303.4" fill="none" stroke="#3f8f5a" stroke-width="1.4" opacity="0.42"/><path d="M150.0 754.9Q508.9 620.6 745.8 319.4" fill="none" stroke="#3f8f5a" stroke-width="1.4" opacity="0.42"/><path d="M150.0 754.9Q472.4 745.4 743.0 569.8" fill="none" stroke="#3f8f5a" stroke-width="1.4" opacity="0.42"/><path d="M150.0 754.9Q623.1 770.9 1035.8 538.9" fill="none" stroke="#3f8f5a" stroke-width="1.4" opacity="0.42"/><path d="M150.0 754.9Q372.6 636.6 501.5 419.8" fill="none" stroke="#3f8f5a" stroke-width="1.4" opacity="0.42"/><path d="M150.0 754.9Q469.7 693.7 711.2 475.4" fill="none" stroke="#3f8f5a" stroke-width="1.4" opacity="0.42"/><path d="M1145.3 712.2Q885.3 964.8 794.3 1315.7" fill="none" stroke="#3f8f5a" stroke-width="1.4" opacity="0.42"/><path d="M1145.3 712.2Q792.6 874.6 575.5 1196.6" fill="none" stroke="#3f8f5a" stroke-width="1.4" opacity="0.42"/><path d="M1145.3 712.2Q834.3 766.8 596.9 974.8" fill="none" stroke="#3f8f5a" stroke-width="1.4" opacity="0.42"/><path d="M1145.3 712.2Q964.1 584.7 743.0 569.8" fill="none" stroke="#3f8f5a" stroke-width="1.4" opacity="0.42"/><path d="M1145.3 712.2Q1024.6 913.2 1025.9 1147.6" fill="none" stroke="#3f8f5a" stroke-width="1.4" opacity="0.42"/><path d="M1145.3 712.2Q961.4 533.0 711.2 475.4" fill="none" stroke="#3f8f5a" stroke-width="1.4" opacity="0.42"/><path d="M1145.3 712.2Q891.7 796.6 718.8 1000.3" fill="none" stroke="#3f8f5a" stroke-width="1.4" opacity="0.42"/><path d="M575.5 1196.6Q424.6 916.2 150.0 754.9" fill="none" stroke="#c58a3d" stroke-width="1.4" opacity="0.42"/><path d="M575.5 1196.6Q867.0 796.6 908.4 303.4" fill="none" stroke="#c58a3d" stroke-width="1.4" opacity="0.42"/><path d="M575.5 1196.6Q783.4 781.8 745.8 319.4" fill="none" stroke="#c58a3d" stroke-width="1.4" opacity="0.42"/><path d="M575.5 1196.6Q617.2 1088.7 596.9 974.8" fill="none" stroke="#c58a3d" stroke-width="1.4" opacity="0.42"/><path d="M575.5 1196.6Q633.2 1002.6 581.9 806.9" fill="none" stroke="#c58a3d" stroke-width="1.4" opacity="0.42"/><path d="M575.5 1196.6Q518.5 805.6 266.7 501.0" fill="none" stroke="#c58a3d" stroke-width="1.4" opacity="0.42"/><path d="M908.4 303.4Q969.6 541.0 1145.3 712.2" fill="none" stroke="#c58a3d" stroke-width="1.4" opacity="0.42"/><path d="M908.4 303.4Q658.6 595.5 596.9 974.8" fill="none" stroke="#c58a3d" stroke-width="1.4" opacity="0.42"/><path d="M908.4 303.4Q674.6 509.4 581.9 806.9" fill="none" stroke="#c58a3d" stroke-width="1.4" opacity="0.42"/><path d="M908.4 303.4Q848.9 741.9 1025.9 1147.6" fill="none" stroke="#c58a3d" stroke-width="1.4" opacity="0.42"/><path d="M908.4 303.4Q966.0 626.3 1182.9 872.3" fill="none" stroke="#c58a3d" stroke-width="1.4" opacity="0.42"/><path d="M908.4 303.4Q917.7 590.3 1074.8 830.7" fill="none" stroke="#c58a3d" stroke-width="1.4" opacity="0.42"/><path d="M745.8 319.4Q890.5 571.8 1145.3 712.2" fill="none" stroke="#3f8f5a" stroke-width="1.4" opacity="0.42"/><path d="M745.8 319.4Q579.6 626.3 596.9 974.8" fill="none" stroke="#3f8f5a" stroke-width="1.4" opacity="0.42"/><path d="M745.8 319.4Q860.1 469.8 1035.8 538.9" fill="none" stroke="#3f8f5a" stroke-width="1.4" opacity="0.42"/><path d="M745.8 319.4Q887.0 657.0 1182.9 872.3" fill="none" stroke="#3f8f5a" stroke-width="1.4" opacity="0.42"/><path d="M745.8 319.4Q637.0 656.1 718.8 1000.3" fill="none" stroke="#3f8f5a" stroke-width="1.4" opacity="0.42"/><path d="M745.8 319.4Q838.7 621.1 1074.8 830.7" fill="none" stroke="#3f8f5a" stroke-width="1.4" opacity="0.42"/><path d="M745.8 319.4Q828.4 523.2 1004.8 654.5" fill="none" stroke="#3f8f5a" stroke-width="1.4" opacity="0.42"/><path d="M596.9 974.8Q404.2 802.3 150.0 754.9" fill="none" stroke="#c58a3d" stroke-width="1.4" opacity="0.42"/><path d="M596.9 974.8Q498.1 691.7 266.7 501.0" fill="none" stroke="#c58a3d" stroke-width="1.4" opacity="0.42"/><path d="M596.9 974.8Q726.7 792.8 743.0 569.8" fill="none" stroke="#c58a3d" stroke-width="1.4" opacity="0.42"/><path d="M596.9 974.8Q724.0 741.1 711.2 475.4" fill="none" stroke="#c58a3d" stroke-width="1.4" opacity="0.42"/><path d="M596.9 974.8Q856.0 969.7 1074.8 830.7" fill="none" stroke="#c58a3d" stroke-width="1.4" opacity="0.42"/><path d="M596.9 974.8Q845.7 871.8 1004.8 654.5" fill="none" stroke="#c58a3d" stroke-width="1.4" opacity="0.42"/><path d="M581.9 806.9Q467.1 609.9 266.7 501.0" fill="none" stroke="#c58a3d" stroke-width="1.4" opacity="0.42"/><path d="M581.9 806.9Q695.6 710.9 743.0 569.8" fill="none" stroke="#c58a3d" stroke-width="1.4" opacity="0.42"/><path d="M581.9 806.9Q756.2 1039.4 1025.9 1147.6" fill="none" stroke="#c58a3d" stroke-width="1.4" opacity="0.42"/><path d="M581.9 806.9Q595.9 602.1 501.5 419.8" fill="none" stroke="#c58a3d" stroke-width="1.4" opacity="0.42"/><path d="M581.9 806.9Q766.4 745.8 892.3 597.7" fill="none" stroke="#c58a3d" stroke-width="1.4" opacity="0.42"/><path d="M581.9 806.9Q814.7 789.9 1004.8 654.5" fill="none" stroke="#c58a3d" stroke-width="1.4" opacity="0.42"/><path d="M266.7 501.0Q676.4 729.6 1145.3 712.2" fill="none" stroke="#3f8f5a" stroke-width="1.4" opacity="0.42"/><path d="M266.7 501.0Q615.2 492.0 908.4 303.4" fill="none" stroke="#3f8f5a" stroke-width="1.4" opacity="0.42"/><path d="M266.7 501.0Q531.7 477.3 745.8 319.4" fill="none" stroke="#3f8f5a" stroke-width="1.4" opacity="0.42"/><path d="M266.7 501.0Q495.2 602.1 743.0 569.8" fill="none" stroke="#3f8f5a" stroke-width="1.4" opacity="0.42"/><path d="M266.7 501.0Q672.9 814.9 1182.9 872.3" fill="none" stroke="#3f8f5a" stroke-width="1.4" opacity="0.42"/><path d="M266.7 501.0Q492.5 550.4 711.2 475.4" fill="none" stroke="#3f8f5a" stroke-width="1.4" opacity="0.42"/><path d="M266.7 501.0Q566.0 637.0 892.3 597.7" fill="none" stroke="#3f8f5a" stroke-width="1.4" opacity="0.42"/><path d="M743.0 569.8Q664.2 949.9 794.3 1315.7" fill="none" stroke="#c58a3d" stroke-width="1.4" opacity="0.42"/><path d="M743.0 569.8Q571.5 859.7 575.5 1196.6" fill="none" stroke="#c58a3d" stroke-width="1.4" opacity="0.42"/><path d="M743.0 569.8Q863.0 459.7 908.4 303.4" fill="none" stroke="#c58a3d" stroke-width="1.4" opacity="0.42"/><path d="M743.0 569.8Q779.5 445.0 745.8 319.4" fill="none" stroke="#c58a3d" stroke-width="1.4" opacity="0.42"/><path d="M743.0 569.8Q872.4 746.7 1074.8 830.7" fill="none" stroke="#c58a3d" stroke-width="1.4" opacity="0.42"/><path d="M743.0 569.8Q862.0 648.8 1004.8 654.5" fill="none" stroke="#c58a3d" stroke-width="1.4" opacity="0.42"/><path d="M1035.8 538.9Q806.3 893.5 794.3 1315.7" fill="none" stroke="#c58a3d" stroke-width="1.4" opacity="0.42"/><path d="M1035.8 538.9Q771.3 609.4 581.9 806.9" fill="none" stroke="#c58a3d" stroke-width="1.4" opacity="0.42"/><path d="M1035.8 538.9Q945.6 841.9 1025.9 1147.6" fill="none" stroke="#c58a3d" stroke-width="1.4" opacity="0.42"/><path d="M1035.8 538.9Q1062.7 726.2 1182.9 872.3" fill="none" stroke="#c58a3d" stroke-width="1.4" opacity="0.42"/><path d="M1035.8 538.9Q882.4 461.7 711.2 475.4" fill="none" stroke="#c58a3d" stroke-width="1.4" opacity="0.42"/><path d="M1035.8 538.9Q812.7 725.2 718.8 1000.3" fill="none" stroke="#c58a3d" stroke-width="1.4" opacity="0.42"/><path d="M1025.9 1147.6Q642.9 828.6 150.0 754.9" fill="none" stroke="#16457c" stroke-width="1.4" opacity="0.42"/><path d="M1025.9 1147.6Q793.8 1109.0 575.5 1196.6" fill="none" stroke="#16457c" stroke-width="1.4" opacity="0.42"/><path d="M1025.9 1147.6Q704.6 982.5 344.4 1008.1" fill="none" stroke="#16457c" stroke-width="1.4" opacity="0.42"/><path d="M1025.9 1147.6Q865.6 710.3 501.5 419.8" fill="none" stroke="#16457c" stroke-width="1.4" opacity="0.42"/><path d="M1025.9 1147.6Q893.0 1031.0 718.8 1000.3" fill="none" stroke="#16457c" stroke-width="1.4" opacity="0.42"/><path d="M344.4 1008.1Q725.0 734.7 908.4 303.4" fill="none" stroke="#c58a3d" stroke-width="1.4" opacity="0.42"/><path d="M344.4 1008.1Q491.3 940.8 581.9 806.9" fill="none" stroke="#c58a3d" stroke-width="1.4" opacity="0.42"/><path d="M344.4 1008.1Q376.5 743.7 266.7 501.0" fill="none" stroke="#c58a3d" stroke-width="1.4" opacity="0.42"/><path d="M344.4 1008.1Q755.8 870.3 1035.8 538.9" fill="none" stroke="#c58a3d" stroke-width="1.4" opacity="0.42"/><path d="M344.4 1008.1Q505.3 735.9 501.5 419.8" fill="none" stroke="#c58a3d" stroke-width="1.4" opacity="0.42"/><path d="M344.4 1008.1Q602.4 793.1 711.2 475.4" fill="none" stroke="#c58a3d" stroke-width="1.4" opacity="0.42"/><path d="M1182.9 872.3Q926.5 1039.6 794.3 1315.7" fill="none" stroke="#3f8f5a" stroke-width="1.4" opacity="0.42"/><path d="M1182.9 872.3Q833.8 949.4 575.5 1196.6" fill="none" stroke="#3f8f5a" stroke-width="1.4" opacity="0.42"/><path d="M1182.9 872.3Q875.6 841.5 596.9 974.8" fill="none" stroke="#3f8f5a" stroke-width="1.4" opacity="0.42"/><path d="M1182.9 872.3Q891.6 755.4 581.9 806.9" fill="none" stroke="#3f8f5a" stroke-width="1.4" opacity="0.42"/><path d="M1182.9 872.3Q1005.3 659.4 743.0 569.8" fill="none" stroke="#3f8f5a" stroke-width="1.4" opacity="0.42"/><path d="M1182.9 872.3Q744.6 822.8 344.4 1008.1" fill="none" stroke="#3f8f5a" stroke-width="1.4" opacity="0.42"/><path d="M1182.9 872.3Q1076.1 694.3 892.3 597.7" fill="none" stroke="#3f8f5a" stroke-width="1.4" opacity="0.42"/><path d="M501.5 419.8Q721.2 418.5 908.4 303.4" fill="none" stroke="#c58a3d" stroke-width="1.4" opacity="0.42"/><path d="M501.5 419.8Q751.9 554.2 1035.8 538.9" fill="none" stroke="#c58a3d" stroke-width="1.4" opacity="0.42"/><path d="M501.5 419.8Q778.9 741.4 1182.9 872.3" fill="none" stroke="#c58a3d" stroke-width="1.4" opacity="0.42"/><path d="M501.5 419.8Q528.9 740.5 718.8 1000.3" fill="none" stroke="#c58a3d" stroke-width="1.4" opacity="0.42"/><path d="M501.5 419.8Q672.0 563.5 892.3 597.7" fill="none" stroke="#c58a3d" stroke-width="1.4" opacity="0.42"/><path d="M501.5 419.8Q720.3 607.6 1004.8 654.5" fill="none" stroke="#c58a3d" stroke-width="1.4" opacity="0.42"/><path d="M711.2 475.4Q635.1 907.2 794.3 1315.7" fill="none" stroke="#3f8f5a" stroke-width="1.4" opacity="0.42"/><path d="M711.2 475.4Q750.3 402.2 745.8 319.4" fill="none" stroke="#3f8f5a" stroke-width="1.4" opacity="0.42"/><path d="M711.2 475.4Q774.4 855.5 1025.9 1147.6" fill="none" stroke="#3f8f5a" stroke-width="1.4" opacity="0.42"/><path d="M711.2 475.4Q614.1 418.2 501.5 419.8" fill="none" stroke="#3f8f5a" stroke-width="1.4" opacity="0.42"/><path d="M711.2 475.4Q843.2 703.9 1074.8 830.7" fill="none" stroke="#3f8f5a" stroke-width="1.4" opacity="0.42"/><path d="M711.2 475.4Q784.6 561.9 892.3 597.7" fill="none" stroke="#3f8f5a" stroke-width="1.4" opacity="0.42"/><path d="M711.2 475.4Q832.9 606.0 1004.8 654.5" fill="none" stroke="#3f8f5a" stroke-width="1.4" opacity="0.42"/><path d="M718.8 1000.3Q468.8 798.0 150.0 754.9" fill="none" stroke="#c58a3d" stroke-width="1.4" opacity="0.42"/><path d="M718.8 1000.3Q677.4 884.4 581.9 806.9" fill="none" stroke="#c58a3d" stroke-width="1.4" opacity="0.42"/><path d="M718.8 1000.3Q530.5 951.8 344.4 1008.1" fill="none" stroke="#c58a3d" stroke-width="1.4" opacity="0.42"/><path d="M718.8 1000.3Q788.5 736.8 711.2 475.4" fill="none" stroke="#c58a3d" stroke-width="1.4" opacity="0.42"/><path d="M718.8 1000.3Q862.0 823.3 892.3 597.7" fill="none" stroke="#c58a3d" stroke-width="1.4" opacity="0.42"/><path d="M718.8 1000.3Q910.2 867.4 1004.8 654.5" fill="none" stroke="#c58a3d" stroke-width="1.4" opacity="0.42"/><path d="M1074.8 830.7Q866.6 1033.9 794.3 1315.7" fill="none" stroke="#c58a3d" stroke-width="1.4" opacity="0.42"/><path d="M1074.8 830.7Q623.0 663.3 150.0 754.9" fill="none" stroke="#c58a3d" stroke-width="1.4" opacity="0.42"/><path d="M1074.8 830.7Q1126.6 781.3 1145.3 712.2" fill="none" stroke="#c58a3d" stroke-width="1.4" opacity="0.42"/><path d="M1074.8 830.7Q773.9 943.7 575.5 1196.6" fill="none" stroke="#c58a3d" stroke-width="1.4" opacity="0.42"/><path d="M1074.8 830.7Q716.9 552.7 266.7 501.0" fill="none" stroke="#c58a3d" stroke-width="1.4" opacity="0.42"/><path d="M1074.8 830.7Q1123.0 866.6 1182.9 872.3" fill="none" stroke="#c58a3d" stroke-width="1.4" opacity="0.42"/><path d="M892.3 597.7Q650.1 852.8 575.5 1196.6" fill="none" stroke="#c58a3d" stroke-width="1.4" opacity="0.42"/><path d="M892.3 597.7Q941.6 452.8 908.4 303.4" fill="none" stroke="#c58a3d" stroke-width="1.4" opacity="0.42"/><path d="M892.3 597.7Q972.3 588.4 1035.8 538.9" fill="none" stroke="#c58a3d" stroke-width="1.4" opacity="0.42"/><path d="M892.3 597.7Q882.1 891.4 1025.9 1147.6" fill="none" stroke="#c58a3d" stroke-width="1.4" opacity="0.42"/><path d="M892.3 597.7Q560.9 726.2 344.4 1008.1" fill="none" stroke="#c58a3d" stroke-width="1.4" opacity="0.42"/><path d="M892.3 597.7Q951.0 739.7 1074.8 830.7" fill="none" stroke="#c58a3d" stroke-width="1.4" opacity="0.42"/><path d="M1004.8 654.5Q807.0 955.6 794.3 1315.7" fill="none" stroke="#c58a3d" stroke-width="1.4" opacity="0.42"/><path d="M1004.8 654.5Q563.3 585.0 150.0 754.9" fill="none" stroke="#c58a3d" stroke-width="1.4" opacity="0.42"/><path d="M1004.8 654.5Q1066.9 703.0 1145.3 712.2" fill="none" stroke="#c58a3d" stroke-width="1.4" opacity="0.42"/><path d="M1004.8 654.5Q1036.5 601.1 1035.8 538.9" fill="none" stroke="#c58a3d" stroke-width="1.4" opacity="0.42"/><path d="M1004.8 654.5Q946.3 904.0 1025.9 1147.6" fill="none" stroke="#c58a3d" stroke-width="1.4" opacity="0.42"/><path d="M1004.8 654.5Q625.1 738.8 344.4 1008.1" fill="none" stroke="#c58a3d" stroke-width="1.4" opacity="0.42"/><circle cx="794.3" cy="1315.7" r="4.6" fill="#3f8f5a"/><circle cx="150.0" cy="754.9" r="4.6" fill="#3f8f5a"/><circle cx="1145.3" cy="712.2" r="4.6" fill="#3f8f5a"/><circle cx="575.5" cy="1196.6" r="4.6" fill="#c58a3d"/><circle cx="908.4" cy="303.4" r="4.6" fill="#c58a3d"/><circle cx="745.8" cy="319.4" r="4.6" fill="#3f8f5a"/><circle cx="596.9" cy="974.8" r="4.6" fill="#c58a3d"/><circle cx="581.9" cy="806.9" r="4.6" fill="#c58a3d"/><circle cx="266.7" cy="501.0" r="4.6" fill="#3f8f5a"/><circle cx="743.0" cy="569.8" r="4.6" fill="#c58a3d"/><circle cx="1035.8" cy="538.9" r="4.6" fill="#c58a3d"/><circle cx="1025.9" cy="1147.6" r="4.6" fill="#16457c"/><circle cx="344.4" cy="1008.1" r="4.6" fill="#c58a3d"/><circle cx="1182.9" cy="872.3" r="4.6" fill="#3f8f5a"/><circle cx="501.5" cy="419.8" r="4.6" fill="#c58a3d"/><circle cx="711.2" cy="475.4" r="4.6" fill="#3f8f5a"/><circle cx="718.8" cy="1000.3" r="4.6" fill="#c58a3d"/><circle cx="1074.8" cy="830.7" r="4.6" fill="#c58a3d"/><circle cx="892.3" cy="597.7" r="4.6" fill="#c58a3d"/><circle cx="1004.8" cy="654.5" r="4.6" fill="#c58a3d"/></svg>