<svg xmlns="http://www.w3.org/2000/svg" width="1000" height="1000" viewBox="0 0 1000 1000">
<rect width="1000" height="1000" fill="#fdfdfb"/>
<path d="M500.0 120.0Q534.1 285.0 617.4 138.6" fill="none" stroke="#1b1e24" stroke-width="0.85" opacity="0.16"/>
<path d="M723.4 192.6Q564.8 300.6 500.0 120.0" fill="none" stroke="#1b1e24" stroke-width="0.85" opacity="0.16"/>
<path d="M500.0 120.0Q589.2 325.0 807.4 276.6" fill="none" stroke="#1b1e24" stroke-width="0.85" opacity="0.16"/>
<path d="M500.0 120.0Q604.8 355.7 861.4 382.6" fill="none" stroke="#1b1e24" stroke-width="0.85" opacity="0.16"/>
<path d="M500.0 120.0Q589.2 454.6 807.4 723.4" fill="none" stroke="#16457c" stroke-width="1.5" opacity="0.55"/>
<path d="M500.0 120.0Q534.1 494.6 617.4 861.4" fill="none" stroke="#1b1e24" stroke-width="0.85" opacity="0.16"/>
<path d="M192.6 723.4Q410.8 454.6 500.0 120.0" fill="none" stroke="#1b1e24" stroke-width="0.85" opacity="0.16"/>
<path d="M138.6 617.4Q395.2 423.9 500.0 120.0" fill="none" stroke="#16457c" stroke-width="1.5" opacity="0.55"/>
<path d="M120.0 500.0Q389.8 389.8 500.0 120.0" fill="none" stroke="#16457c" stroke-width="1.5" opacity="0.55"/>
<path d="M138.6 382.6Q395.2 355.7 500.0 120.0" fill="none" stroke="#16457c" stroke-width="1.5" opacity="0.55"/>
<path d="M500.0 120.0Q435.2 300.6 276.6 192.6" fill="none" stroke="#16457c" stroke-width="1.5" opacity="0.55"/>
<path d="M382.6 138.6Q465.9 285.0 500.0 120.0" fill="none" stroke="#1b1e24" stroke-width="0.85" opacity="0.16"/>
<path d="M617.4 138.6Q598.8 306.0 723.4 192.6" fill="none" stroke="#1b1e24" stroke-width="0.85" opacity="0.16"/>
<path d="M807.4 276.6Q623.2 330.4 617.4 138.6" fill="none" stroke="#1b1e24" stroke-width="0.85" opacity="0.16"/>
<path d="M617.4 138.6Q638.9 361.1 861.4 382.6" fill="none" stroke="#1b1e24" stroke-width="0.85" opacity="0.16"/>
<path d="M617.4 138.6Q638.9 429.2 861.4 617.4" fill="none" stroke="#1b1e24" stroke-width="0.85" opacity="0.16"/>
<path d="M617.4 138.6Q623.2 460.0 807.4 723.4" fill="none" stroke="#1b1e24" stroke-width="0.85" opacity="0.16"/>
<path d="M617.4 138.6Q534.1 505.4 500.0 880.0" fill="none" stroke="#1b1e24" stroke-width="0.85" opacity="0.16"/>
<path d="M192.6 723.4Q444.9 460.0 617.4 138.6" fill="none" stroke="#1b1e24" stroke-width="0.85" opacity="0.16"/>
<path d="M617.4 138.6Q429.2 429.2 138.6 617.4" fill="none" stroke="#1b1e24" stroke-width="0.85" opacity="0.16"/>
<path d="M120.0 500.0Q423.9 395.2 617.4 138.6" fill="none" stroke="#1b1e24" stroke-width="0.85" opacity="0.16"/>
<path d="M617.4 138.6Q429.2 361.1 138.6 382.6" fill="none" stroke="#1b1e24" stroke-width="0.85" opacity="0.16"/>
<path d="M192.6 276.6Q444.9 330.4 617.4 138.6" fill="none" stroke="#1b1e24" stroke-width="0.85" opacity="0.16"/>
<path d="M276.6 192.6Q469.3 306.0 617.4 138.6" fill="none" stroke="#1b1e24" stroke-width="0.85" opacity="0.16"/>
<path d="M880.0 500.0Q675.0 410.8 723.4 192.6" fill="none" stroke="#1b1e24" stroke-width="0.85" opacity="0.16"/>
<path d="M807.4 723.4Q653.9 475.6 723.4 192.6" fill="none" stroke="#1b1e24" stroke-width="0.85" opacity="0.16"/>
<path d="M723.4 192.6Q629.5 500.0 723.4 807.4" fill="none" stroke="#1b1e24" stroke-width="0.85" opacity="0.16"/>
<path d="M617.4 861.4Q598.8 515.7 723.4 192.6" fill="none" stroke="#1b1e24" stroke-width="0.85" opacity="0.16"/>
<path d="M500.0 880.0Q564.8 521.0 723.4 192.6" fill="none" stroke="#1b1e24" stroke-width="0.85" opacity="0.16"/>
<path d="M382.6 861.4Q530.7 515.7 723.4 192.6" fill="none" stroke="#1b1e24" stroke-width="0.85" opacity="0.16"/>
<path d="M723.4 192.6Q500.0 500.0 276.6 807.4" fill="none" stroke="#1b1e24" stroke-width="0.85" opacity="0.16"/>
<path d="M120.0 500.0Q454.6 410.8 723.4 192.6" fill="none" stroke="#1b1e24" stroke-width="0.85" opacity="0.16"/>
<path d="M723.4 192.6Q460.0 376.8 138.6 382.6" fill="none" stroke="#1b1e24" stroke-width="0.85" opacity="0.16"/>
<path d="M723.4 192.6Q475.6 346.1 192.6 276.6" fill="none" stroke="#1b1e24" stroke-width="0.85" opacity="0.16"/>
<path d="M723.4 192.6Q500.0 321.7 276.6 192.6" fill="none" stroke="#1b1e24" stroke-width="0.85" opacity="0.16"/>
<path d="M723.4 192.6Q530.7 306.0 382.6 138.6" fill="none" stroke="#1b1e24" stroke-width="0.85" opacity="0.16"/>
<path d="M861.4 382.6Q694.0 401.2 807.4 276.6" fill="none" stroke="#1b1e24" stroke-width="0.85" opacity="0.16"/>
<path d="M807.4 276.6Q694.0 469.3 861.4 617.4" fill="none" stroke="#1b1e24" stroke-width="0.85" opacity="0.16"/>
<path d="M807.4 723.4Q678.3 500.0 807.4 276.6" fill="none" stroke="#1b1e24" stroke-width="0.85" opacity="0.16"/>
<path d="M723.4 807.4Q653.9 524.4 807.4 276.6" fill="none" stroke="#1b1e24" stroke-width="0.85" opacity="0.16"/>
<path d="M500.0 880.0Q589.2 545.4 807.4 276.6" fill="none" stroke="#1b1e24" stroke-width="0.85" opacity="0.16"/>
<path d="M807.4 276.6Q555.1 540.0 382.6 861.4" fill="none" stroke="#1b1e24" stroke-width="0.85" opacity="0.16"/>
<path d="M807.4 276.6Q524.4 524.4 276.6 807.4" fill="none" stroke="#1b1e24" stroke-width="0.85" opacity="0.16"/>
<path d="M807.4 276.6Q500.0 500.0 192.6 723.4" fill="none" stroke="#1b1e24" stroke-width="0.85" opacity="0.16"/>
<path d="M138.6 617.4Q484.3 469.3 807.4 276.6" fill="none" stroke="#1b1e24" stroke-width="0.85" opacity="0.16"/>
<path d="M807.4 276.6Q484.3 401.2 138.6 382.6" fill="none" stroke="#1b1e24" stroke-width="0.85" opacity="0.16"/>
<path d="M192.6 276.6Q500.0 370.5 807.4 276.6" fill="none" stroke="#1b1e24" stroke-width="0.85" opacity="0.16"/>
<path d="M861.4 382.6Q715.0 465.9 880.0 500.0" fill="none" stroke="#1b1e24" stroke-width="0.85" opacity="0.16"/>
<path d="M861.4 617.4Q709.6 500.0 861.4 382.6" fill="none" stroke="#1b1e24" stroke-width="0.85" opacity="0.16"/>
<path d="M861.4 382.6Q604.8 576.1 500.0 880.0" fill="none" stroke="#1b1e24" stroke-width="0.85" opacity="0.16"/>
<path d="M382.6 861.4Q570.8 570.8 861.4 382.6" fill="none" stroke="#1b1e24" stroke-width="0.85" opacity="0.16"/>
<path d="M861.4 382.6Q540.0 555.1 276.6 807.4" fill="none" stroke="#1b1e24" stroke-width="0.85" opacity="0.16"/>
<path d="M861.4 382.6Q515.7 530.7 192.6 723.4" fill="none" stroke="#1b1e24" stroke-width="0.85" opacity="0.16"/>
<path d="M861.4 382.6Q500.0 500.0 138.6 617.4" fill="none" stroke="#1b1e24" stroke-width="0.85" opacity="0.16"/>
<path d="M138.6 382.6Q500.0 431.9 861.4 382.6" fill="none" stroke="#1b1e24" stroke-width="0.85" opacity="0.16"/>
<path d="M192.6 276.6Q515.7 401.2 861.4 382.6" fill="none" stroke="#1b1e24" stroke-width="0.85" opacity="0.16"/>
<path d="M382.6 138.6Q570.8 361.1 861.4 382.6" fill="none" stroke="#1b1e24" stroke-width="0.85" opacity="0.16"/>
<path d="M880.0 500.0Q715.0 534.1 861.4 617.4" fill="none" stroke="#1b1e24" stroke-width="0.85" opacity="0.16"/>
<path d="M723.4 807.4Q675.0 589.2 880.0 500.0" fill="none" stroke="#1b1e24" stroke-width="0.85" opacity="0.16"/>
<path d="M617.4 861.4Q644.3 604.8 880.0 500.0" fill="none" stroke="#1b1e24" stroke-width="0.85" opacity="0.16"/>
<path d="M500.0 880.0Q610.2 610.2 880.0 500.0" fill="none" stroke="#1b1e24" stroke-width="0.85" opacity="0.16"/>
<path d="M880.0 500.0Q576.1 604.8 382.6 861.4" fill="none" stroke="#1b1e24" stroke-width="0.85" opacity="0.16"/>
<path d="M880.0 500.0Q545.4 589.2 276.6 807.4" fill="none" stroke="#1b1e24" stroke-width="0.85" opacity="0.16"/>
<path d="M880.0 500.0Q521.0 564.8 192.6 723.4" fill="none" stroke="#1b1e24" stroke-width="0.85" opacity="0.16"/>
<path d="M880.0 500.0Q500.0 500.0 120.0 500.0" fill="none" stroke="#1b1e24" stroke-width="0.85" opacity="0.16"/>
<path d="M192.6 276.6Q521.0 435.2 880.0 500.0" fill="none" stroke="#1b1e24" stroke-width="0.85" opacity="0.16"/>
<path d="M880.0 500.0Q545.4 410.8 276.6 192.6" fill="none" stroke="#1b1e24" stroke-width="0.85" opacity="0.16"/>
<path d="M382.6 138.6Q576.1 395.2 880.0 500.0" fill="none" stroke="#1b1e24" stroke-width="0.85" opacity="0.16"/>
<path d="M861.4 617.4Q669.6 623.2 723.4 807.4" fill="none" stroke="#1b1e24" stroke-width="0.85" opacity="0.16"/>
<path d="M500.0 880.0Q604.8 644.3 861.4 617.4" fill="none" stroke="#16457c" stroke-width="1.5" opacity="0.55"/>
<path d="M382.6 861.4Q570.8 638.9 861.4 617.4" fill="none" stroke="#16457c" stroke-width="1.5" opacity="0.55"/>
<path d="M861.4 617.4Q540.0 623.2 276.6 807.4" fill="none" stroke="#16457c" stroke-width="1.5" opacity="0.55"/>
<path d="M861.4 617.4Q515.7 598.8 192.6 723.4" fill="none" stroke="#1b1e24" stroke-width="0.85" opacity="0.16"/>
<path d="M138.6 617.4Q500.0 568.1 861.4 617.4" fill="none" stroke="#16457c" stroke-width="1.5" opacity="0.55"/>
<path d="M861.4 617.4Q515.7 469.3 192.6 276.6" fill="none" stroke="#16457c" stroke-width="1.5" opacity="0.55"/>
<path d="M861.4 617.4Q570.8 429.2 382.6 138.6" fill="none" stroke="#1b1e24" stroke-width="0.85" opacity="0.16"/>
<path d="M723.4 807.4Q653.9 653.9 807.4 723.4" fill="none" stroke="#1b1e24" stroke-width="0.85" opacity="0.16"/>
<path d="M617.4 861.4Q623.2 669.6 807.4 723.4" fill="none" stroke="#1b1e24" stroke-width="0.85" opacity="0.16"/>
<path d="M807.4 723.4Q500.0 629.5 192.6 723.4" fill="none" stroke="#1b1e24" stroke-width="0.85" opacity="0.16"/>
<path d="M807.4 723.4Q484.3 598.8 138.6 617.4" fill="none" stroke="#16457c" stroke-width="1.5" opacity="0.55"/>
<path d="M807.4 723.4Q479.0 564.8 120.0 500.0" fill="none" stroke="#16457c" stroke-width="1.5" opacity="0.55"/>
<path d="M138.6 382.6Q484.3 530.7 807.4 723.4" fill="none" stroke="#16457c" stroke-width="1.5" opacity="0.55"/>
<path d="M807.4 723.4Q524.4 475.6 276.6 192.6" fill="none" stroke="#16457c" stroke-width="1.5" opacity="0.55"/>
<path d="M382.6 138.6Q555.1 460.0 807.4 723.4" fill="none" stroke="#1b1e24" stroke-width="0.85" opacity="0.16"/>
<path d="M723.4 807.4Q598.8 694.0 617.4 861.4" fill="none" stroke="#1b1e24" stroke-width="0.85" opacity="0.16"/>
<path d="M723.4 807.4Q564.8 699.4 500.0 880.0" fill="none" stroke="#1b1e24" stroke-width="0.85" opacity="0.16"/>
<path d="M382.6 861.4Q530.7 694.0 723.4 807.4" fill="none" stroke="#1b1e24" stroke-width="0.85" opacity="0.16"/>
<path d="M723.4 807.4Q500.0 678.3 276.6 807.4" fill="none" stroke="#1b1e24" stroke-width="0.85" opacity="0.16"/>
<path d="M120.0 500.0Q454.6 589.2 723.4 807.4" fill="none" stroke="#1b1e24" stroke-width="0.85" opacity="0.16"/>
<path d="M192.6 276.6Q475.6 524.4 723.4 807.4" fill="none" stroke="#1b1e24" stroke-width="0.85" opacity="0.16"/>
<path d="M723.4 807.4Q500.0 500.0 276.6 192.6" fill="none" stroke="#1b1e24" stroke-width="0.85" opacity="0.16"/>
<path d="M382.6 138.6Q530.7 484.3 723.4 807.4" fill="none" stroke="#1b1e24" stroke-width="0.85" opacity="0.16"/>
<path d="M382.6 861.4Q500.0 709.6 617.4 861.4" fill="none" stroke="#1b1e24" stroke-width="0.85" opacity="0.16"/>
<path d="M276.6 807.4Q469.3 694.0 617.4 861.4" fill="none" stroke="#1b1e24" stroke-width="0.85" opacity="0.16"/>
<path d="M192.6 723.4Q444.9 669.6 617.4 861.4" fill="none" stroke="#1b1e24" stroke-width="0.85" opacity="0.16"/>
<path d="M617.4 861.4Q429.2 638.9 138.6 617.4" fill="none" stroke="#1b1e24" stroke-width="0.85" opacity="0.16"/>
<path d="M120.0 500.0Q423.9 604.8 617.4 861.4" fill="none" stroke="#1b1e24" stroke-width="0.85" opacity="0.16"/>
<path d="M617.4 861.4Q429.2 570.8 138.6 382.6" fill="none" stroke="#1b1e24" stroke-width="0.85" opacity="0.16"/>
<path d="M276.6 192.6Q469.3 515.7 617.4 861.4" fill="none" stroke="#1b1e24" stroke-width="0.85" opacity="0.16"/>
<path d="M617.4 861.4Q500.0 500.0 382.6 138.6" fill="none" stroke="#1b1e24" stroke-width="0.85" opacity="0.16"/>
<path d="M382.6 861.4Q465.9 715.0 500.0 880.0" fill="none" stroke="#16457c" stroke-width="1.5" opacity="0.55"/>
<path d="M276.6 807.4Q435.2 699.4 500.0 880.0" fill="none" stroke="#16457c" stroke-width="1.5" opacity="0.55"/>
<path d="M192.6 723.4Q410.8 675.0 500.0 880.0" fill="none" stroke="#1b1e24" stroke-width="0.85" opacity="0.16"/>
<path d="M500.0 880.0Q410.8 545.4 192.6 276.6" fill="none" stroke="#16457c" stroke-width="1.5" opacity="0.55"/>
<path d="M500.0 880.0Q465.9 505.4 382.6 138.6" fill="none" stroke="#1b1e24" stroke-width="0.85" opacity="0.16"/>
<path d="M276.6 807.4Q401.2 694.0 382.6 861.4" fill="none" stroke="#16457c" stroke-width="1.5" opacity="0.55"/>
<path d="M192.6 723.4Q376.8 669.6 382.6 861.4" fill="none" stroke="#1b1e24" stroke-width="0.85" opacity="0.16"/>
<path d="M192.6 276.6Q376.8 540.0 382.6 861.4" fill="none" stroke="#16457c" stroke-width="1.5" opacity="0.55"/>
<path d="M382.6 138.6Q431.9 500.0 382.6 861.4" fill="none" stroke="#1b1e24" stroke-width="0.85" opacity="0.16"/>
<path d="M276.6 807.4Q325.0 589.2 120.0 500.0" fill="none" stroke="#16457c" stroke-width="1.5" opacity="0.55"/>
<path d="M276.6 807.4Q346.1 524.4 192.6 276.6" fill="none" stroke="#16457c" stroke-width="1.5" opacity="0.55"/>
<path d="M276.6 807.4Q401.2 484.3 382.6 138.6" fill="none" stroke="#1b1e24" stroke-width="0.85" opacity="0.16"/>
<path d="M192.6 723.4Q306.0 598.8 138.6 617.4" fill="none" stroke="#1b1e24" stroke-width="0.85" opacity="0.16"/>
<path d="M138.6 382.6Q306.0 530.7 192.6 723.4" fill="none" stroke="#1b1e24" stroke-width="0.85" opacity="0.16"/>
<path d="M192.6 723.4Q321.7 500.0 192.6 276.6" fill="none" stroke="#1b1e24" stroke-width="0.85" opacity="0.16"/>
<path d="M276.6 192.6Q346.1 475.6 192.6 723.4" fill="none" stroke="#1b1e24" stroke-width="0.85" opacity="0.16"/>
<path d="M120.0 500.0Q285.0 534.1 138.6 617.4" fill="none" stroke="#16457c" stroke-width="1.5" opacity="0.55"/>
<path d="M138.6 617.4Q290.4 500.0 138.6 382.6" fill="none" stroke="#16457c" stroke-width="1.5" opacity="0.55"/>
<path d="M138.6 617.4Q330.4 444.9 276.6 192.6" fill="none" stroke="#16457c" stroke-width="1.5" opacity="0.55"/>
<path d="M138.6 617.4Q361.1 429.2 382.6 138.6" fill="none" stroke="#1b1e24" stroke-width="0.85" opacity="0.16"/>
<path d="M138.6 382.6Q285.0 465.9 120.0 500.0" fill="none" stroke="#16457c" stroke-width="1.5" opacity="0.55"/>
<path d="M276.6 192.6Q325.0 410.8 120.0 500.0" fill="none" stroke="#16457c" stroke-width="1.5" opacity="0.55"/>
<path d="M382.6 138.6Q355.7 395.2 120.0 500.0" fill="none" stroke="#1b1e24" stroke-width="0.85" opacity="0.16"/>
<path d="M138.6 382.6Q306.0 401.2 192.6 276.6" fill="none" stroke="#16457c" stroke-width="1.5" opacity="0.55"/>
<path d="M276.6 192.6Q330.4 376.8 138.6 382.6" fill="none" stroke="#16457c" stroke-width="1.5" opacity="0.55"/>
<path d="M276.6 192.6Q401.2 306.0 382.6 138.6" fill="none" stroke="#1b1e24" stroke-width="0.85" opacity="0.16"/>
<circle cx="500.0" cy="120.0" r="6.5" fill="#16457c"/>
<circle cx="617.4" cy="138.6" r="4.5" fill="#fdfdfb" stroke="#1b1e24" stroke-width="1.6"/>
<circle cx="723.4" cy="192.6" r="4.5" fill="#fdfdfb" stroke="#1b1e24" stroke-width="1.6"/>
<circle cx="807.4" cy="276.6" r="4.5" fill="#fdfdfb" stroke="#1b1e24" stroke-width="1.6"/>
<circle cx="861.4" cy="382.6" r="4.5" fill="#fdfdfb" stroke="#1b1e24" stroke-width="1.6"/>
<circle cx="880.0" cy="500.0" r="4.5" fill="#fdfdfb" stroke="#1b1e24" stroke-width="1.6"/>
<circle cx="861.4" cy="617.4" r="6.5" fill="#16457c"/>
<circle cx="807.4" cy="723.4" r="6.5" fill="#16457c"/>
<circle cx="723.4" cy="807.4" r="4.5" fill="#fdfdfb" stroke="#1b1e24" stroke-width="1.6"/>
<circle cx="617.4" cy="861.4" r="4.5" fill="#fdfdfb" stroke="#1b1e24" stroke-width="1.6"/>
<circle cx="500.0" cy="880.0" r="6.5" fill="#16457c"/>
<circle cx="382.6" cy="861.4" r="6.5" fill="#16457c"/>
<circle cx="276.6" cy="807.4" r="6.5" fill="#16457c"/>
<circle cx="192.6" cy="723.4" r="4.5" fill="#fdfdfb" stroke="#1b1e24" stroke-width="1.6"/>
<circle cx="138.6" cy="617.4" r="6.5" fill="#16457c"/>
<circle cx="120.0" cy="500.0" r="6.5" fill="#16457c"/>
<circle cx="138.6" cy="382.6" r="6.5" fill="#16457c"/>
<circle cx="192.6" cy="276.6" r="6.5" fill="#16457c"/>
<circle cx="276.6" cy="192.6" r="6.5" fill="#16457c"/>
<circle cx="382.6" cy="138.6" r="4.5" fill="#fdfdfb" stroke="#1b1e24" stroke-width="1.6"/>
<text x="500.0" y="966" font-family="Charter, Georgia, serif" font-size="21" fill="#6b7078" text-anchor="middle">witness 1 of 13 · 126 arcs · 11 forced Paley blocks</text>
</svg>